<?xml version="1.0" encoding="UTF-8" standalone="no"?>
<!DOCTYPE svg PUBLIC "-//W3C//DTD SVG 1.1//EN" "http://www.w3.org/Graphics/SVG/1.1/DTD/svg11.dtd">
<svg width="100%" height="100%" viewBox="0 0 447 94" version="1.1" xmlns="http://www.w3.org/2000/svg" xmlns:xlink="http://www.w3.org/1999/xlink" xml:space="preserve" xmlns:serif="http://www.serif.com/" style="fill-rule:evenodd;clip-rule:evenodd;stroke-linejoin:round;stroke-miterlimit:2;">
    <g transform="matrix(1,0,0,1,11.3124,79.7478)">
        <path d="M0,-64.667C2.289,-72.019 9.319,-76.463 15.949,-79.494C14.168,-74.824 12.887,-69.668 14.424,-64.729C16.312,-58.028 22.012,-53.245 27.973,-50.12C37.501,-45.089 48.367,-43.655 58.246,-39.51C66.299,-36.252 74.855,-32.004 79.247,-24.116C81.938,-19.063 78.505,-13.723 75.989,-9.382C66.484,6.239 47.583,14.827 29.552,13.198C33.737,9.271 38.19,4.919 39.13,-1.029C40.326,-8.753 36.161,-16.012 31.511,-21.817C24.447,-30.9 14.868,-37.498 6.919,-45.716C2.28,-50.726 -1.971,-57.574 0,-64.667" style="fill:rgb(8,138,234);fill-rule:nonzero;"/>
    </g>
    <g transform="matrix(1,0,0,1,50.8222,21.7821)">
        <path d="M0,-19.508C2.701,-22.839 7.673,-21.652 11.352,-21.219C23.964,-18.312 34.842,-8.631 39.646,3.331C32.471,-1.662 24.356,-5.229 15.788,-6.99C11.249,-8.085 6.147,-8.342 2.454,-11.528C0.301,-13.414 -1.267,-16.734 0,-19.508" style="fill:rgb(8,138,234);fill-rule:nonzero;"/>
    </g>
    <g transform="matrix(-0.519822,0.854275,0.854275,0.519822,45.1985,6.55959)">
        <path d="M4.501,-15.602C2.072,-15.836 0.979,-13.026 0.462,-11.107C-0.452,-6.135 1.49,-1.054 4.501,2.864C7.701,-1.898 11.773,-6.409 17.599,-7.754C14.481,-11.871 9.802,-15.308 4.501,-15.602" style="fill:rgb(118,118,118);fill-rule:nonzero;"/>
    </g>
    <g transform="matrix(1,0,0,1,68.1152,36.2064)">
        <path d="M0,-17.529C5.505,-16.734 10.568,-14.25 15.537,-11.868C18.807,-10.198 22.477,-8.136 23.528,-4.331C23.973,-2.64 23.189,0 21.042,-0.268C16.497,-0.949 13.146,-4.516 9.711,-7.259C6.342,-10.537 2.495,-13.487 0,-17.529" style="fill:rgb(118,118,118);fill-rule:nonzero;"/>
    </g>
    <g transform="matrix(1,0,0,1,8.65326,92.0501)">
        <path d="M0,-33.398C5.937,-30.169 11.793,-26.137 18.744,-25.581C24.096,-24.755 29.498,-25.993 34.281,-28.427C38.354,-23.015 39.539,-15.375 36.446,-9.207C34.252,-4.496 29.342,0 23.767,-1.217C16.827,-2.96 10.465,-6.641 5.184,-11.446C2.38,-13.992 -0.796,-16.838 -1.312,-20.828C-1.773,-25.056 -1.155,-29.324 0,-33.398" style="fill:rgb(118,118,118);fill-rule:nonzero;"/>
    </g>
    <g transform="matrix(1,0,0,1,6.01356,66.7791)">
        <path d="M0,-30.005C2.545,-31.716 5.134,-28.634 5.328,-26.253C5.773,-21.53 2.64,-17.52 1.234,-13.209C-0.795,-8.478 -1.055,-3.301 -1.888,1.711C-5.908,-5.342 -7.104,-13.962 -4.972,-21.818C-4.032,-24.88 -2.507,-27.933 0,-30.005" style="fill:rgb(8,138,234);fill-rule:nonzero;"/>
    </g>
    <g transform="matrix(1,0,0,1,131.813,18.7473)">
        <path d="M0,39.018C-5.744,39.018 -11.543,37.013 -16.095,32.949L-11.164,27.042C-7.75,29.859 -4.173,31.647 0.162,31.647C3.576,31.647 5.636,30.292 5.636,28.071L5.636,27.963C5.636,25.849 4.335,24.766 -2.006,23.14C-9.646,21.188 -14.578,19.076 -14.578,11.543L-14.578,11.435C-14.578,4.552 -9.051,0 -1.301,0C4.227,0 8.941,1.734 12.788,4.822L8.453,11.109C5.094,8.779 1.788,7.371 -1.409,7.371C-4.606,7.371 -6.286,8.833 -6.286,10.676L-6.286,10.785C-6.286,13.277 -4.661,14.09 1.896,15.769C9.592,17.774 13.927,20.539 13.927,27.15L13.927,27.258C13.927,34.791 8.183,39.018 0,39.018" style="fill:rgb(8,138,234);fill-rule:nonzero;"/>
    </g>
    <g transform="matrix(1,0,0,1,177.502,19.2894)">
        <path d="M0,37.933L-11.76,21.784L-16.149,26.336L-16.149,37.933L-24.495,37.933L-24.495,0L-16.149,0L-16.149,16.582L-0.759,0L9.321,0L-6.124,16.094L10.024,37.933L0,37.933Z" style="fill:rgb(8,138,234);fill-rule:nonzero;"/>
    </g>
    <g transform="matrix(1,0,0,1,209.968,34.4092)">
        <path d="M0,7.694L0,22.813L-8.346,22.813L-8.346,7.858L-22.924,-15.119L-13.169,-15.119L-4.119,0.108L5.094,-15.119L14.577,-15.119L0,7.694Z" style="fill:rgb(8,138,234);fill-rule:nonzero;"/>
    </g>
    <g transform="matrix(1,0,0,1,251.32,43.9461)">
        <path d="M0,-11.38C0,-15.119 -2.601,-17.124 -6.774,-17.124L-13.223,-17.124L-13.223,-5.527L-6.611,-5.527C-2.438,-5.527 0,-8.02 0,-11.273L0,-11.38ZM-6.883,1.896L-13.223,1.896L-13.223,13.276L-21.568,13.276L-21.568,-24.656L-6.069,-24.656C2.98,-24.656 8.454,-19.292 8.454,-11.543L8.454,-11.434C8.454,-2.655 1.626,1.896 -6.883,1.896" style="fill:rgb(8,138,234);fill-rule:nonzero;"/>
    </g>
    <g transform="matrix(1,0,0,1,295.87,38.2571)">
        <path d="M0,-0.001C0,-6.504 -4.77,-11.923 -11.488,-11.923C-18.208,-11.923 -22.869,-6.613 -22.869,-0.109L-22.869,-0.001C-22.869,6.503 -18.1,11.92 -11.38,11.92C-4.66,11.92 0,6.61 0,0.107L0,-0.001ZM-11.488,19.617C-23.194,19.617 -31.593,10.891 -31.593,0.107L-31.593,-0.001C-31.593,-10.785 -23.086,-19.618 -11.38,-19.618C0.325,-19.618 8.726,-10.893 8.726,-0.109L8.726,-0.001C8.726,10.783 0.217,19.617 -11.488,19.617" style="fill:rgb(8,138,234);fill-rule:nonzero;"/>
    </g>
    <g transform="matrix(1,0,0,1,325.249,18.7473)">
        <path d="M0,39.018C-5.745,39.018 -11.543,37.013 -16.096,32.949L-11.163,27.042C-7.75,29.859 -4.173,31.647 0.162,31.647C3.576,31.647 5.637,30.292 5.637,28.071L5.637,27.963C5.637,25.849 4.336,24.766 -2.005,23.14C-9.646,21.188 -14.577,19.076 -14.577,11.543L-14.577,11.435C-14.577,4.552 -9.05,0 -1.3,0C4.228,0 8.941,1.734 12.789,4.822L8.454,11.109C5.094,8.779 1.788,7.371 -1.408,7.371C-4.606,7.371 -6.286,8.833 -6.286,10.676L-6.286,10.785C-6.286,13.277 -4.661,14.09 1.896,15.769C9.592,17.774 13.927,20.539 13.927,27.15L13.927,27.258C13.927,34.791 8.183,39.018 0,39.018" style="fill:rgb(8,138,234);fill-rule:nonzero;"/>
    </g>
    <g transform="matrix(1,0,0,1,362.808,49.5286)">
        <path d="M0,-22.545L0,7.694L-8.346,7.694L-8.346,-22.545L-19.888,-22.545L-19.888,-30.239L11.543,-30.239L11.543,-22.545L0,-22.545Z" style="fill:rgb(8,138,234);fill-rule:nonzero;"/>
    </g>
    <g transform="matrix(1,0,0,1,392.618,47.1967)">
        <path d="M0,-18.153L-5.04,-5.852L5.039,-5.852L0,-18.153ZM11.488,10.026L8.021,1.519L-8.021,1.519L-11.488,10.026L-19.997,10.026L-3.739,-28.179L3.955,-28.179L20.213,10.026L11.488,10.026Z" style="fill:rgb(8,138,234);fill-rule:nonzero;"/>
    </g>
    <g transform="matrix(1,0,0,1,418.689,19.2894)">
        <path d="M0,37.933L0,0L8.346,0L8.346,30.347L27.258,30.347L27.258,37.933L0,37.933Z" style="fill:rgb(8,138,234);fill-rule:nonzero;"/>
    </g>
    <g transform="matrix(1,0,0,1,114.326,68.118)">
        <path d="M0,3.245L1.828,3.067C1.938,3.681 2.161,4.131 2.498,4.419C2.834,4.707 3.288,4.85 3.859,4.85C4.465,4.85 4.921,4.723 5.228,4.467C5.534,4.211 5.687,3.911 5.687,3.568C5.687,3.349 5.623,3.161 5.494,3.007C5.365,2.852 5.14,2.718 4.817,2.603C4.598,2.527 4.097,2.391 3.313,2.197C2.307,1.947 1.6,1.641 1.193,1.276C0.622,0.765 0.337,0.141 0.337,-0.596C0.337,-1.069 0.471,-1.513 0.739,-1.926C1.008,-2.338 1.396,-2.652 1.901,-2.868C2.407,-3.084 3.018,-3.192 3.732,-3.192C4.9,-3.192 5.779,-2.936 6.37,-2.424C6.96,-1.912 7.271,-1.229 7.3,-0.374L5.421,-0.291C5.341,-0.77 5.168,-1.113 4.903,-1.322C4.639,-1.532 4.242,-1.637 3.714,-1.637C3.167,-1.637 2.74,-1.525 2.431,-1.3C2.232,-1.156 2.133,-0.964 2.133,-0.723C2.133,-0.503 2.226,-0.315 2.412,-0.157C2.649,0.041 3.225,0.249 4.139,0.464C5.053,0.681 5.729,0.903 6.167,1.134C6.604,1.364 6.947,1.68 7.195,2.08C7.442,2.479 7.566,2.974 7.566,3.561C7.566,4.095 7.418,4.595 7.122,5.059C6.826,5.525 6.407,5.871 5.865,6.098C5.323,6.324 4.648,6.437 3.841,6.437C2.664,6.437 1.761,6.166 1.13,5.622C0.499,5.078 0.123,4.286 0,3.245" style="fill:rgb(118,118,118);fill-rule:nonzero;"/>
    </g>
    <g transform="matrix(1,0,0,1,126.523,69.7422)">
        <path d="M0,-0.011C0,1.043 0.243,1.842 0.729,2.385C1.217,2.929 1.835,3.201 2.583,3.201C3.333,3.201 3.947,2.931 4.428,2.391C4.908,1.852 5.147,1.043 5.147,-0.036C5.147,-1.103 4.914,-1.899 4.446,-2.423C3.979,-2.948 3.358,-3.21 2.583,-3.21C1.81,-3.21 1.185,-2.945 0.711,-2.413C0.237,-1.882 0,-1.081 0,-0.011M-1.937,0.052C-1.937,-0.896 -1.794,-1.691 -1.511,-2.334C-1.299,-2.808 -1.011,-3.234 -0.645,-3.61C-0.278,-3.987 0.123,-4.266 0.559,-4.448C1.139,-4.694 1.807,-4.817 2.564,-4.817C3.936,-4.817 5.032,-4.391 5.855,-3.54C6.679,-2.69 7.091,-1.507 7.091,0.008C7.091,1.51 6.682,2.685 5.865,3.534C5.049,4.383 3.957,4.806 2.59,4.806C1.206,4.806 0.105,4.385 -0.711,3.541C-1.527,2.696 -1.937,1.534 -1.937,0.052" style="fill:rgb(118,118,118);fill-rule:nonzero;"/>
    </g>
    <g transform="matrix(1,0,0,1,136.625,65.1613)">
        <path d="M0,9.229L0,0L1.879,0L1.879,7.661L6.551,7.661L6.551,9.229L0,9.229Z" style="fill:rgb(118,118,118);fill-rule:nonzero;"/>
    </g>
    <g transform="matrix(1,0,0,1,145.999,74.5487)">
        <path d="M0,-9.464L1.879,-9.464L1.879,-4.424C1.879,-3.624 1.901,-3.106 1.948,-2.869C2.028,-2.488 2.22,-2.182 2.522,-1.951C2.825,-1.721 3.239,-1.606 3.764,-1.606C4.297,-1.606 4.699,-1.715 4.97,-1.933C5.24,-2.151 5.403,-2.418 5.459,-2.735C5.514,-3.053 5.541,-3.58 5.541,-4.317L5.541,-9.464L7.42,-9.464L7.42,-4.576C7.42,-3.459 7.369,-2.67 7.268,-2.209C7.166,-1.747 6.979,-1.358 6.706,-1.041C6.433,-0.723 6.068,-0.471 5.611,-0.282C5.154,-0.094 4.557,0 3.82,0C2.932,0 2.258,-0.103 1.799,-0.308C1.34,-0.513 0.977,-0.779 0.711,-1.108C0.443,-1.436 0.269,-1.779 0.184,-2.139C0.061,-2.672 0,-3.459 0,-4.5L0,-9.464Z" style="fill:rgb(118,118,118);fill-rule:nonzero;"/>
    </g>
    <g transform="matrix(1,0,0,1,158.989,65.0843)">
        <path d="M0,9.306L0,1.575L-2.762,1.575L-2.762,0L4.633,0L4.633,1.575L1.879,1.575L1.879,9.306L0,9.306Z" style="fill:rgb(118,118,118);fill-rule:nonzero;"/>
    </g>
    <g transform="matrix(1,0,0,1,-76.9582,-207.095)">
        <rect x="243.231" y="272.18" width="1.879" height="9.306" style="fill:rgb(118,118,118);"/>
    </g>
    <g transform="matrix(1,0,0,1,172.992,69.7422)">
        <path d="M0,-0.011C0,1.043 0.243,1.842 0.729,2.385C1.217,2.929 1.835,3.201 2.583,3.201C3.333,3.201 3.947,2.931 4.428,2.391C4.908,1.852 5.147,1.043 5.147,-0.036C5.147,-1.103 4.914,-1.899 4.446,-2.423C3.979,-2.948 3.358,-3.21 2.583,-3.21C1.81,-3.21 1.185,-2.945 0.711,-2.413C0.237,-1.882 0,-1.081 0,-0.011M-1.937,0.052C-1.937,-0.896 -1.794,-1.691 -1.511,-2.334C-1.299,-2.808 -1.011,-3.234 -0.645,-3.61C-0.278,-3.987 0.123,-4.266 0.559,-4.448C1.139,-4.694 1.807,-4.817 2.564,-4.817C3.936,-4.817 5.032,-4.391 5.855,-3.54C6.679,-2.69 7.091,-1.507 7.091,0.008C7.091,1.51 6.682,2.685 5.865,3.534C5.049,4.383 3.957,4.806 2.59,4.806C1.206,4.806 0.105,4.385 -0.711,3.541C-1.527,2.696 -1.937,1.534 -1.937,0.052" style="fill:rgb(118,118,118);fill-rule:nonzero;"/>
    </g>
    <g transform="matrix(1,0,0,1,183.062,65.0843)">
        <path d="M0,9.306L0,0L1.828,0L5.637,6.214L5.637,0L7.383,0L7.383,9.306L5.497,9.306L1.746,3.238L1.746,9.306L0,9.306Z" style="fill:rgb(118,118,118);fill-rule:nonzero;"/>
    </g>
    <g transform="matrix(1,0,0,1,193.451,68.118)">
        <path d="M0,3.245L1.828,3.067C1.938,3.681 2.161,4.131 2.498,4.419C2.834,4.707 3.288,4.85 3.859,4.85C4.465,4.85 4.921,4.723 5.228,4.467C5.534,4.211 5.687,3.911 5.687,3.568C5.687,3.349 5.623,3.161 5.494,3.007C5.365,2.852 5.14,2.718 4.817,2.603C4.598,2.527 4.097,2.391 3.313,2.197C2.307,1.947 1.6,1.641 1.193,1.276C0.622,0.765 0.337,0.141 0.337,-0.596C0.337,-1.069 0.471,-1.513 0.739,-1.926C1.008,-2.338 1.396,-2.652 1.901,-2.868C2.407,-3.084 3.018,-3.192 3.732,-3.192C4.9,-3.192 5.779,-2.936 6.37,-2.424C6.96,-1.912 7.271,-1.229 7.3,-0.374L5.421,-0.291C5.341,-0.77 5.168,-1.113 4.903,-1.322C4.639,-1.532 4.242,-1.637 3.714,-1.637C3.167,-1.637 2.74,-1.525 2.431,-1.3C2.232,-1.156 2.133,-0.964 2.133,-0.723C2.133,-0.503 2.226,-0.315 2.412,-0.157C2.649,0.041 3.225,0.249 4.139,0.464C5.053,0.681 5.729,0.903 6.167,1.134C6.604,1.364 6.947,1.68 7.195,2.08C7.442,2.479 7.566,2.974 7.566,3.561C7.566,4.095 7.418,4.595 7.122,5.059C6.826,5.525 6.407,5.871 5.865,6.098C5.323,6.324 4.648,6.437 3.841,6.437C2.664,6.437 1.761,6.166 1.13,5.622C0.499,5.078 0.123,4.286 0,3.245" style="fill:rgb(118,118,118);fill-rule:nonzero;"/>
    </g>
    <g transform="matrix(1,0,0,1,209.213,65.0843)">
        <path d="M0,9.306L0,0L6.379,0L6.379,1.575L1.879,1.575L1.879,3.777L5.764,3.777L5.764,5.351L1.879,5.351L1.879,9.306L0,9.306Z" style="fill:rgb(118,118,118);fill-rule:nonzero;"/>
    </g>
    <g transform="matrix(1,0,0,1,220.19,69.7422)">
        <path d="M0,-0.011C0,1.043 0.243,1.842 0.729,2.385C1.217,2.929 1.835,3.201 2.583,3.201C3.333,3.201 3.947,2.931 4.428,2.391C4.908,1.852 5.147,1.043 5.147,-0.036C5.147,-1.103 4.914,-1.899 4.446,-2.423C3.979,-2.948 3.358,-3.21 2.583,-3.21C1.81,-3.21 1.185,-2.945 0.711,-2.413C0.237,-1.882 0,-1.081 0,-0.011M-1.937,0.052C-1.937,-0.896 -1.794,-1.691 -1.511,-2.334C-1.299,-2.808 -1.011,-3.234 -0.645,-3.61C-0.278,-3.987 0.123,-4.266 0.559,-4.448C1.139,-4.694 1.807,-4.817 2.564,-4.817C3.936,-4.817 5.032,-4.391 5.855,-3.54C6.679,-2.69 7.091,-1.507 7.091,0.008C7.091,1.51 6.682,2.685 5.865,3.534C5.049,4.383 3.957,4.806 2.59,4.806C1.206,4.806 0.105,4.385 -0.711,3.541C-1.527,2.696 -1.937,1.534 -1.937,0.052" style="fill:rgb(118,118,118);fill-rule:nonzero;"/>
    </g>
    <g transform="matrix(1,0,0,1,232.128,70.4542)">
        <path d="M0,-1.434L1.39,-1.434C2.292,-1.434 2.854,-1.472 3.079,-1.548C3.303,-1.624 3.479,-1.755 3.605,-1.942C3.732,-2.128 3.796,-2.361 3.796,-2.64C3.796,-2.954 3.712,-3.206 3.545,-3.399C3.378,-3.591 3.142,-3.712 2.837,-3.763C2.685,-3.785 2.228,-3.795 1.466,-3.795L0,-3.795L0,-1.434ZM-1.879,3.936L-1.879,-5.37L2.075,-5.37C3.07,-5.37 3.793,-5.286 4.243,-5.119C4.694,-4.952 5.055,-4.655 5.325,-4.227C5.597,-3.799 5.731,-3.311 5.731,-2.761C5.731,-2.062 5.526,-1.486 5.116,-1.031C4.706,-0.576 4.092,-0.289 3.275,-0.171C3.682,0.066 4.017,0.327 4.281,0.61C4.546,0.893 4.902,1.397 5.351,2.121L6.487,3.936L4.24,3.936L2.882,1.911C2.399,1.188 2.069,0.732 1.892,0.544C1.714,0.355 1.525,0.226 1.327,0.156C1.128,0.087 0.812,0.051 0.381,0.051L0,0.051L0,3.936L-1.879,3.936Z" style="fill:rgb(118,118,118);fill-rule:nonzero;"/>
    </g>
    <g transform="matrix(1,0,0,1,-76.9582,-207.095)">
        <rect x="323.133" y="272.18" width="1.879" height="9.306" style="fill:rgb(118,118,118);"/>
    </g>
    <g transform="matrix(1,0,0,1,251.358,65.0843)">
        <path d="M0,9.306L0,0L1.828,0L5.637,6.214L5.637,0L7.383,0L7.383,9.306L5.497,9.306L1.746,3.238L1.746,9.306L0,9.306Z" style="fill:rgb(118,118,118);fill-rule:nonzero;"/>
    </g>
    <g transform="matrix(1,0,0,1,264.317,65.0843)">
        <path d="M0,9.306L0,1.575L-2.762,1.575L-2.762,0L4.633,0L4.633,1.575L1.879,1.575L1.879,9.306L0,9.306Z" style="fill:rgb(118,118,118);fill-rule:nonzero;"/>
    </g>
    <g transform="matrix(1,0,0,1,271.657,65.0843)">
        <path d="M0,9.306L0,0L6.9,0L6.9,1.575L1.879,1.575L1.879,3.638L6.551,3.638L6.551,5.205L1.879,5.205L1.879,7.738L7.078,7.738L7.078,9.306L0,9.306Z" style="fill:rgb(118,118,118);fill-rule:nonzero;"/>
    </g>
    <g transform="matrix(1,0,0,1,283.709,70.4542)">
        <path d="M0,-1.434L1.39,-1.434C2.292,-1.434 2.854,-1.472 3.079,-1.548C3.303,-1.624 3.479,-1.755 3.605,-1.942C3.732,-2.128 3.796,-2.361 3.796,-2.64C3.796,-2.954 3.712,-3.206 3.545,-3.399C3.378,-3.591 3.142,-3.712 2.837,-3.763C2.685,-3.785 2.228,-3.795 1.466,-3.795L0,-3.795L0,-1.434ZM-1.879,3.936L-1.879,-5.37L2.075,-5.37C3.07,-5.37 3.793,-5.286 4.243,-5.119C4.694,-4.952 5.055,-4.655 5.325,-4.227C5.597,-3.799 5.731,-3.311 5.731,-2.761C5.731,-2.062 5.526,-1.486 5.116,-1.031C4.706,-0.576 4.092,-0.289 3.275,-0.171C3.682,0.066 4.017,0.327 4.281,0.61C4.546,0.893 4.902,1.397 5.351,2.121L6.487,3.936L4.24,3.936L2.882,1.911C2.399,1.188 2.069,0.732 1.892,0.544C1.714,0.355 1.525,0.226 1.327,0.156C1.128,0.087 0.812,0.051 0.381,0.051L0,0.051L0,3.936L-1.879,3.936Z" style="fill:rgb(118,118,118);fill-rule:nonzero;"/>
    </g>
    <g transform="matrix(1,0,0,1,292.726,65.0843)">
        <path d="M0,9.306L0,0L1.828,0L5.637,6.214L5.637,0L7.383,0L7.383,9.306L5.497,9.306L1.746,3.238L1.746,9.306L0,9.306Z" style="fill:rgb(118,118,118);fill-rule:nonzero;"/>
    </g>
    <g transform="matrix(1,0,0,1,308.522,68.7667)">
        <path d="M0,1.942L-1.282,-1.511L-2.539,1.942L0,1.942ZM3.46,5.624L1.415,5.624L0.603,3.51L-3.116,3.51L-3.885,5.624L-5.878,5.624L-2.253,-3.682L-0.267,-3.682L3.46,5.624Z" style="fill:rgb(118,118,118);fill-rule:nonzero;"/>
    </g>
    <g transform="matrix(1,0,0,1,315.603,65.0843)">
        <path d="M0,9.306L0,1.575L-2.762,1.575L-2.762,0L4.633,0L4.633,1.575L1.879,1.575L1.879,9.306L0,9.306Z" style="fill:rgb(118,118,118);fill-rule:nonzero;"/>
    </g>
    <g transform="matrix(1,0,0,1,-76.9582,-207.095)">
        <rect x="399.846" y="272.18" width="1.879" height="9.306" style="fill:rgb(118,118,118);"/>
    </g>
    <g transform="matrix(1,0,0,1,329.606,69.7422)">
        <path d="M0,-0.011C0,1.043 0.243,1.842 0.729,2.385C1.217,2.929 1.835,3.201 2.583,3.201C3.333,3.201 3.947,2.931 4.428,2.391C4.908,1.852 5.147,1.043 5.147,-0.036C5.147,-1.103 4.914,-1.899 4.446,-2.423C3.979,-2.948 3.358,-3.21 2.583,-3.21C1.81,-3.21 1.185,-2.945 0.711,-2.413C0.237,-1.882 0,-1.081 0,-0.011M-1.937,0.052C-1.937,-0.896 -1.794,-1.691 -1.511,-2.334C-1.299,-2.808 -1.011,-3.234 -0.645,-3.61C-0.278,-3.987 0.123,-4.266 0.559,-4.448C1.139,-4.694 1.807,-4.817 2.564,-4.817C3.936,-4.817 5.032,-4.391 5.855,-3.54C6.679,-2.69 7.091,-1.507 7.091,0.008C7.091,1.51 6.682,2.685 5.865,3.534C5.049,4.383 3.957,4.806 2.59,4.806C1.206,4.806 0.105,4.385 -0.711,3.541C-1.527,2.696 -1.937,1.534 -1.937,0.052" style="fill:rgb(118,118,118);fill-rule:nonzero;"/>
    </g>
    <g transform="matrix(1,0,0,1,339.678,65.0843)">
        <path d="M0,9.306L0,0L1.828,0L5.637,6.214L5.637,0L7.383,0L7.383,9.306L5.497,9.306L1.746,3.238L1.746,9.306L0,9.306Z" style="fill:rgb(118,118,118);fill-rule:nonzero;"/>
    </g>
    <g transform="matrix(1,0,0,1,355.474,68.7667)">
        <path d="M0,1.942L-1.282,-1.511L-2.539,1.942L0,1.942ZM3.46,5.624L1.415,5.624L0.603,3.51L-3.116,3.51L-3.885,5.624L-5.878,5.624L-2.253,-3.682L-0.267,-3.682L3.46,5.624Z" style="fill:rgb(118,118,118);fill-rule:nonzero;"/>
    </g>
    <g transform="matrix(1,0,0,1,361.475,65.1613)">
        <path d="M0,9.229L0,0L1.879,0L1.879,7.661L6.551,7.661L6.551,9.229L0,9.229Z" style="fill:rgb(118,118,118);fill-rule:nonzero;"/>
    </g>
    <g transform="matrix(1,0,0,1,375.257,68.118)">
        <path d="M0,3.245L1.828,3.067C1.938,3.681 2.161,4.131 2.498,4.419C2.834,4.707 3.288,4.85 3.859,4.85C4.465,4.85 4.921,4.723 5.228,4.467C5.534,4.211 5.687,3.911 5.687,3.568C5.687,3.349 5.623,3.161 5.494,3.007C5.365,2.852 5.14,2.718 4.817,2.603C4.598,2.527 4.097,2.391 3.313,2.197C2.307,1.947 1.6,1.641 1.193,1.276C0.622,0.765 0.337,0.141 0.337,-0.596C0.337,-1.069 0.471,-1.513 0.739,-1.926C1.008,-2.338 1.396,-2.652 1.901,-2.868C2.407,-3.084 3.018,-3.192 3.732,-3.192C4.9,-3.192 5.779,-2.936 6.37,-2.424C6.96,-1.912 7.271,-1.229 7.3,-0.374L5.421,-0.291C5.341,-0.77 5.168,-1.113 4.903,-1.322C4.639,-1.532 4.242,-1.637 3.714,-1.637C3.167,-1.637 2.74,-1.525 2.431,-1.3C2.232,-1.156 2.133,-0.964 2.133,-0.723C2.133,-0.503 2.226,-0.315 2.412,-0.157C2.649,0.041 3.225,0.249 4.139,0.464C5.053,0.681 5.729,0.903 6.167,1.134C6.604,1.364 6.947,1.68 7.195,2.08C7.442,2.479 7.566,2.974 7.566,3.561C7.566,4.095 7.418,4.595 7.122,5.059C6.826,5.525 6.407,5.871 5.865,6.098C5.323,6.324 4.648,6.437 3.841,6.437C2.664,6.437 1.761,6.166 1.13,5.622C0.499,5.078 0.123,4.286 0,3.245" style="fill:rgb(118,118,118);fill-rule:nonzero;"/>
    </g>
    <g transform="matrix(1,0,0,1,385.905,65.0843)">
        <path d="M0,9.306L0,0L1.879,0L1.879,3.663L5.561,3.663L5.561,0L7.439,0L7.439,9.306L5.561,9.306L5.561,5.238L1.879,5.238L1.879,9.306L0,9.306Z" style="fill:rgb(118,118,118);fill-rule:nonzero;"/>
    </g>
    <g transform="matrix(1,0,0,1,-76.9582,-207.095)">
        <rect x="473.683" y="272.18" width="1.879" height="9.306" style="fill:rgb(118,118,118);"/>
    </g>
    <g transform="matrix(1,0,0,1,403.767,72.8159)">
        <path d="M0,-6.157L0,-3.516L1.029,-3.516C1.77,-3.516 2.265,-3.565 2.514,-3.662C2.764,-3.76 2.96,-3.912 3.102,-4.119C3.243,-4.327 3.314,-4.568 3.314,-4.844C3.314,-5.181 3.215,-5.461 3.016,-5.681C2.816,-5.901 2.564,-6.039 2.26,-6.094C2.036,-6.136 1.585,-6.157 0.908,-6.157L0,-6.157ZM-1.879,1.574L-1.879,-7.731L1.137,-7.731C2.279,-7.731 3.024,-7.684 3.371,-7.592C3.904,-7.452 4.351,-7.148 4.711,-6.68C5.07,-6.213 5.25,-5.609 5.25,-4.869C5.25,-4.297 5.146,-3.817 4.939,-3.428C4.731,-3.038 4.468,-2.732 4.148,-2.511C3.829,-2.288 3.504,-2.141 3.174,-2.069C2.726,-1.98 2.076,-1.935 1.226,-1.935L0,-1.935L0,1.574L-1.879,1.574Z" style="fill:rgb(118,118,118);fill-rule:nonzero;"/>
    </g>
    <g transform="matrix(1,0,0,1,413.933,72.8159)">
        <path d="M0,-6.157L0,-3.516L1.029,-3.516C1.77,-3.516 2.265,-3.565 2.514,-3.662C2.764,-3.76 2.96,-3.912 3.102,-4.119C3.243,-4.327 3.314,-4.568 3.314,-4.844C3.314,-5.181 3.215,-5.461 3.016,-5.681C2.816,-5.901 2.564,-6.039 2.26,-6.094C2.036,-6.136 1.585,-6.157 0.908,-6.157L0,-6.157ZM-1.879,1.574L-1.879,-7.731L1.137,-7.731C2.279,-7.731 3.024,-7.684 3.371,-7.592C3.904,-7.452 4.351,-7.148 4.711,-6.68C5.07,-6.213 5.25,-5.609 5.25,-4.869C5.25,-4.297 5.146,-3.817 4.939,-3.428C4.731,-3.038 4.468,-2.732 4.148,-2.511C3.829,-2.288 3.504,-2.141 3.174,-2.069C2.726,-1.98 2.076,-1.935 1.226,-1.935L0,-1.935L0,1.574L-1.879,1.574Z" style="fill:rgb(118,118,118);fill-rule:nonzero;"/>
    </g>
    <g transform="matrix(1,0,0,1,-76.9582,-207.095)">
        <rect x="499.121" y="272.18" width="1.879" height="9.306" style="fill:rgb(118,118,118);"/>
    </g>
    <g transform="matrix(1,0,0,1,427.346,65.0843)">
        <path d="M0,9.306L0,0L1.828,0L5.637,6.214L5.637,0L7.383,0L7.383,9.306L5.497,9.306L1.746,3.238L1.746,9.306L0,9.306Z" style="fill:rgb(118,118,118);fill-rule:nonzero;"/>
    </g>
    <g transform="matrix(1,0,0,1,442.54,68.5055)">
        <path d="M0,2.463L0,0.896L4.049,0.896L4.049,4.603C3.656,4.984 3.086,5.318 2.339,5.609C1.592,5.899 0.835,6.043 0.069,6.043C-0.904,6.043 -1.752,5.839 -2.477,5.431C-3.199,5.023 -3.743,4.439 -4.107,3.679C-4.472,2.919 -4.653,2.093 -4.653,1.2C-4.653,0.232 -4.45,-0.63 -4.044,-1.383C-3.638,-2.137 -3.043,-2.714 -2.26,-3.116C-1.664,-3.425 -0.921,-3.58 -0.032,-3.58C1.123,-3.58 2.025,-3.337 2.675,-2.852C3.324,-2.368 3.742,-1.698 3.929,-0.844L2.063,-0.494C1.932,-0.951 1.685,-1.312 1.323,-1.577C0.961,-1.842 0.51,-1.974 -0.032,-1.974C-0.854,-1.974 -1.506,-1.713 -1.99,-1.193C-2.475,-0.672 -2.717,0.1 -2.717,1.124C-2.717,2.229 -2.472,3.057 -1.98,3.609C-1.49,4.161 -0.847,4.438 -0.051,4.438C0.342,4.438 0.737,4.36 1.133,4.206C1.528,4.052 1.868,3.864 2.151,3.645L2.151,2.463L0,2.463Z" style="fill:rgb(118,118,118);fill-rule:nonzero;"/>
    </g>
</svg>
