<?xml version="1.0" encoding="utf-8"?>
<!-- Generator: Adobe Illustrator 28.3.0, SVG Export Plug-In . SVG Version: 6.00 Build 0)  -->
<svg version="1.1" id="Camada_1" xmlns:serif="http://www.serif.com/"
	 xmlns="http://www.w3.org/2000/svg" xmlns:xlink="http://www.w3.org/1999/xlink" x="0px" y="0px" viewBox="0 0 258.9 141.7"
	 style="enable-background:new 0 0 258.9 141.7;" xml:space="preserve">
<style type="text/css">
	.st0{fill:#FFFFFF;}
	.st1{fill-rule:evenodd;clip-rule:evenodd;fill:#FFFFFF;}
</style>
<g>
	<g transform="matrix(1,0,0,1,11.3124,79.7478)">
		<path class="st0" d="M89.2-63c1.7-5.4,6.8-8.7,11.7-10.9c-1.3,3.4-2.3,7.2-1.1,10.9c1.4,4.9,5.6,8.4,10,10.7
			c7,3.7,15,4.8,22.3,7.8c5.9,2.4,12.2,5.5,15.4,11.3c2,3.7-0.5,7.6-2.4,10.8c-7,11.5-20.9,17.8-34.1,16.6c3.1-2.9,6.3-6.1,7-10.5
			c0.9-5.7-2.2-11-5.6-15.3c-5.2-6.7-12.2-11.5-18.1-17.6C90.9-52.8,87.8-57.8,89.2-63"/>
	</g>
	<g transform="matrix(1,0,0,1,50.8222,21.7821)">
		<path class="st0" d="M78.7-14.5c2-2.4,5.6-1.6,8.3-1.3c9.3,2.1,17.3,9.3,20.8,18C102.6-1.3,96.6-4,90.3-5.3
			c-3.3-0.8-7.1-1-9.8-3.3C79-10,77.8-12.4,78.7-14.5"/>
	</g>
	<g transform="matrix(-0.519822,0.854275,0.854275,0.519822,45.1985,6.55959)">
		<path class="st0" d="M-35.1,59.1c-1.8-0.2-2.6,1.9-3,3.3c-0.7,3.7,0.8,7.4,3,10.3c2.4-3.5,5.3-6.8,9.6-7.8
			C-27.7,61.8-31.2,59.3-35.1,59.1"/>
	</g>
	<g transform="matrix(1,0,0,1,68.1152,36.2064)">
		<path class="st0" d="M74.2-16.8c4,0.6,7.8,2.4,11.4,4.2c2.4,1.2,5.1,2.7,5.9,5.5c0.3,1.2-0.2,3.2-1.8,3c-3.3-0.5-5.8-3.1-8.3-5.1
			C78.8-11.7,76-13.9,74.2-16.8"/>
	</g>
	<g transform="matrix(1,0,0,1,8.65326,92.0501)">
		<path class="st0" d="M89.9-43.3c4.4,2.4,8.7,5.3,13.8,5.7c3.9,0.6,7.9-0.3,11.4-2.1c3,4,3.9,9.6,1.6,14.1
			c-1.6,3.5-5.2,6.8-9.3,5.9c-5.1-1.3-9.8-4-13.7-7.5c-2.1-1.9-4.4-4-4.8-6.9C88.6-37.2,89.1-40.3,89.9-43.3"/>
	</g>
	<g transform="matrix(1,0,0,1,6.01356,66.7791)">
		<path class="st0" d="M90.6-34.1c1.9-1.3,3.8,1,3.9,2.8c0.3,3.5-2,6.4-3,9.6c-1.5,3.5-1.7,7.3-2.3,11c-3-5.2-3.8-11.5-2.3-17.3
			C87.6-30.3,88.8-32.6,90.6-34.1"/>
	</g>
</g>
<g>
	<g transform="matrix(1,0,0,1,131.813,18.7473)">
		<path class="st0" d="M-115.1,97.3c-4.2,0-8.5-1.5-11.8-4.5l3.6-4.3c2.5,2.1,5.1,3.4,8.3,3.4c2.5,0,4-1,4-2.6v-0.1
			c0-1.6-1-2.3-5.6-3.5c-5.6-1.4-9.2-3-9.2-8.5V77c0-5.1,4.1-8.4,9.8-8.4c4.1,0,7.5,1.3,10.4,3.5l-3.2,4.6c-2.5-1.7-4.9-2.7-7.2-2.7
			s-3.6,1.1-3.6,2.4v0.1c0,1.8,1.2,2.4,6,3.7c5.7,1.5,8.8,3.5,8.8,8.4v0.1C-104.9,94.2-109.1,97.3-115.1,97.3"/>
	</g>
	<g transform="matrix(1,0,0,1,177.502,19.2894)">
		<path class="st0" d="M-127.3,96.4l-8.6-11.9l-3.2,3.3v8.5h-6.1V68.5h6.1v12.2l11.3-12.2h7.4l-11.4,11.8l11.9,16.1H-127.3z"/>
	</g>
	<g transform="matrix(1,0,0,1,209.968,34.4092)">
		<path class="st0" d="M-135.9,70.1v11.1h-6.1v-11l-10.7-16.9h7.2l6.7,11.2l6.8-11.2h7L-135.9,70.1z"/>
	</g>
	<g transform="matrix(1,0,0,1,251.32,43.9461)">
		<path class="st0" d="M-146.8,53.6c0-2.7-1.9-4.2-5-4.2h-4.7v8.5h4.9C-148.6,57.9-146.8,56.1-146.8,53.6L-146.8,53.6z M-151.9,63.4
			h-4.7v8.4h-6.1V43.8h11.4c6.7,0,10.7,3.9,10.7,9.6v0.1C-140.6,60-145.6,63.4-151.9,63.4"/>
	</g>
	<g transform="matrix(1,0,0,1,295.87,38.2571)">
		<path class="st0" d="M-158.6,63.5c0-4.8-3.5-8.8-8.4-8.8c-4.9,0-8.4,3.9-8.4,8.7v0.1c0,4.8,3.5,8.8,8.4,8.8
			C-162,72.2-158.6,68.3-158.6,63.5L-158.6,63.5z M-167.1,77.9c-8.6,0-14.8-6.4-14.8-14.3v-0.1c0-7.9,6.3-14.4,14.9-14.4
			c8.6,0,14.8,6.4,14.8,14.3v0.1C-152.2,71.4-158.5,77.9-167.1,77.9"/>
	</g>
	<g transform="matrix(1,0,0,1,325.249,18.7473)">
		<path class="st0" d="M-166.4,97.3c-4.2,0-8.5-1.5-11.8-4.5l3.6-4.3c2.5,2.1,5.1,3.4,8.3,3.4c2.5,0,4-1,4-2.6v-0.1
			c0-1.6-1-2.3-5.6-3.5c-5.6-1.4-9.2-3-9.2-8.5V77c0-5.1,4.1-8.4,9.8-8.4c4.1,0,7.5,1.3,10.4,3.5l-3.2,4.6c-2.5-1.7-4.9-2.7-7.2-2.7
			c-2.4,0-3.6,1.1-3.6,2.4v0.1c0,1.8,1.2,2.4,6,3.7c5.7,1.5,8.8,3.5,8.8,8.4v0.1C-156.2,94.2-160.4,97.3-166.4,97.3"/>
	</g>
	<g transform="matrix(1,0,0,1,362.808,49.5286)">
		<path class="st0" d="M-176.3,43.9v22.2h-6.1V43.9h-8.5v-5.7h23.1v5.7H-176.3z"/>
	</g>
	<g transform="matrix(1,0,0,1,392.618,47.1967)">
		<path class="st0" d="M-184.2,47.8l-3.7,9h7.4L-184.2,47.8z M-175.8,68.5l-2.5-6.3h-11.8l-2.5,6.3h-6.3l12-28.1h5.7l12,28.1H-175.8
			z"/>
	</g>
	<g transform="matrix(1,0,0,1,418.689,19.2894)">
		<path class="st0" d="M-191.2,96.4V68.5h6.1v22.3h13.9v5.6H-191.2z"/>
	</g>
	<g transform="matrix(1,0,0,1,114.326,68.118)">
		<path class="st0" d="M-110.5,57.9l1.3-0.1c0.1,0.5,0.2,0.8,0.5,1c0.2,0.2,0.6,0.3,1,0.3c0.4,0,0.8-0.1,1-0.3
			c0.2-0.2,0.3-0.4,0.3-0.7c0-0.2,0-0.3-0.1-0.4c-0.1-0.1-0.3-0.2-0.5-0.3c-0.2-0.1-0.5-0.2-1.1-0.3c-0.7-0.2-1.3-0.4-1.6-0.7
			c-0.4-0.4-0.6-0.8-0.6-1.4c0-0.3,0.1-0.7,0.3-1c0.2-0.3,0.5-0.5,0.9-0.7c0.4-0.2,0.8-0.2,1.3-0.2c0.9,0,1.5,0.2,1.9,0.6
			c0.4,0.4,0.7,0.9,0.7,1.5l-1.4,0.1c-0.1-0.4-0.2-0.6-0.4-0.8c-0.2-0.2-0.5-0.2-0.9-0.2c-0.4,0-0.7,0.1-0.9,0.2
			c-0.1,0.1-0.2,0.2-0.2,0.4c0,0.2,0.1,0.3,0.2,0.4c0.2,0.1,0.6,0.3,1.3,0.5c0.7,0.2,1.2,0.3,1.5,0.5c0.3,0.2,0.6,0.4,0.8,0.7
			c0.2,0.3,0.3,0.7,0.3,1.1c0,0.4-0.1,0.8-0.3,1.1c-0.2,0.3-0.5,0.6-0.9,0.8c-0.4,0.2-0.9,0.2-1.5,0.2c-0.9,0-1.5-0.2-2-0.6
			C-110.1,59.3-110.4,58.7-110.5,57.9"/>
	</g>
	<g transform="matrix(1,0,0,1,126.523,69.7422)">
		<path class="st0" d="M-113.7,55.1c0,0.8,0.2,1.4,0.5,1.8c0.4,0.4,0.8,0.6,1.4,0.6c0.6,0,1-0.2,1.4-0.6c0.4-0.4,0.5-1,0.5-1.8
			c0-0.8-0.2-1.4-0.5-1.8c-0.3-0.4-0.8-0.6-1.4-0.6c-0.6,0-1,0.2-1.4,0.6C-113.6,53.7-113.7,54.3-113.7,55.1 M-115.2,55.2
			c0-0.7,0.1-1.3,0.3-1.8c0.2-0.3,0.4-0.7,0.6-0.9c0.3-0.3,0.6-0.5,0.9-0.6c0.4-0.2,0.9-0.3,1.5-0.3c1,0,1.8,0.3,2.4,0.9
			c0.6,0.6,0.9,1.5,0.9,2.6c0,1.1-0.3,2-0.9,2.6c-0.6,0.6-1.4,0.9-2.4,0.9c-1,0-1.8-0.3-2.4-0.9C-114.9,57.1-115.2,56.3-115.2,55.2"
			/>
	</g>
	<g transform="matrix(1,0,0,1,136.625,65.1613)">
		<path class="st0" d="M-116.4,63.1v-6.8h1.4V62h3.4v1.2H-116.4z"/>
	</g>
	<g transform="matrix(1,0,0,1,145.999,74.5487)">
		<path class="st0" d="M-118.9,46.9h1.4v3.7c0,0.6,0,1,0.1,1.1c0.1,0.3,0.2,0.5,0.4,0.7c0.2,0.2,0.5,0.3,0.9,0.3
			c0.4,0,0.7-0.1,0.9-0.2c0.2-0.2,0.3-0.4,0.4-0.6c0-0.2,0.1-0.6,0.1-1.2v-3.8h1.4v3.6c0,0.8,0,1.4-0.1,1.7
			c-0.1,0.3-0.2,0.6-0.4,0.9c-0.2,0.2-0.5,0.4-0.8,0.6c-0.3,0.1-0.8,0.2-1.3,0.2c-0.7,0-1.1-0.1-1.5-0.2c-0.3-0.2-0.6-0.3-0.8-0.6
			c-0.2-0.2-0.3-0.5-0.4-0.8c-0.1-0.4-0.1-1-0.1-1.7V46.9z"/>
	</g>
	<g transform="matrix(1,0,0,1,158.989,65.0843)">
		<path class="st0" d="M-122.3,63.2v-5.7h-2v-1.2h5.4v1.2h-2v5.7H-122.3z"/>
	</g>
	<g transform="matrix(1,0,0,1,-76.9582,-207.095)">
		<rect x="119" y="328.5" class="st1" width="1.4" height="6.8"/>
	</g>
	<g transform="matrix(1,0,0,1,172.992,69.7422)">
		<path class="st0" d="M-126.1,55.1c0,0.8,0.2,1.4,0.5,1.8c0.4,0.4,0.8,0.6,1.4,0.6c0.6,0,1-0.2,1.4-0.6c0.4-0.4,0.5-1,0.5-1.8
			c0-0.8-0.2-1.4-0.5-1.8c-0.3-0.4-0.8-0.6-1.4-0.6c-0.6,0-1,0.2-1.4,0.6C-125.9,53.7-126.1,54.3-126.1,55.1 M-127.5,55.2
			c0-0.7,0.1-1.3,0.3-1.8c0.2-0.3,0.4-0.7,0.6-0.9c0.3-0.3,0.6-0.5,0.9-0.6c0.4-0.2,0.9-0.3,1.5-0.3c1,0,1.8,0.3,2.4,0.9
			c0.6,0.6,0.9,1.5,0.9,2.6c0,1.1-0.3,2-0.9,2.6c-0.6,0.6-1.4,0.9-2.4,0.9c-1,0-1.8-0.3-2.4-0.9C-127.2,57.1-127.5,56.3-127.5,55.2"
			/>
	</g>
	<g transform="matrix(1,0,0,1,183.062,65.0843)">
		<path class="st0" d="M-128.7,63.2v-6.8h1.3l2.8,4.6v-4.6h1.3v6.8h-1.4l-2.8-4.5v4.5H-128.7z"/>
	</g>
	<g transform="matrix(1,0,0,1,193.451,68.118)">
		<path class="st0" d="M-131.5,57.9l1.3-0.1c0.1,0.5,0.2,0.8,0.5,1c0.2,0.2,0.6,0.3,1,0.3c0.4,0,0.8-0.1,1-0.3
			c0.2-0.2,0.3-0.4,0.3-0.7c0-0.2,0-0.3-0.1-0.4c-0.1-0.1-0.3-0.2-0.5-0.3c-0.2-0.1-0.5-0.2-1.1-0.3c-0.7-0.2-1.3-0.4-1.6-0.7
			c-0.4-0.4-0.6-0.8-0.6-1.4c0-0.3,0.1-0.7,0.3-1c0.2-0.3,0.5-0.5,0.9-0.7c0.4-0.2,0.8-0.2,1.3-0.2c0.9,0,1.5,0.2,1.9,0.6
			c0.4,0.4,0.7,0.9,0.7,1.5l-1.4,0.1c-0.1-0.4-0.2-0.6-0.4-0.8c-0.2-0.2-0.5-0.2-0.9-0.2c-0.4,0-0.7,0.1-0.9,0.2
			c-0.1,0.1-0.2,0.2-0.2,0.4c0,0.2,0.1,0.3,0.2,0.4c0.2,0.1,0.6,0.3,1.3,0.5c0.7,0.2,1.2,0.3,1.5,0.5c0.3,0.2,0.6,0.4,0.8,0.7
			c0.2,0.3,0.3,0.7,0.3,1.1c0,0.4-0.1,0.8-0.3,1.1c-0.2,0.3-0.5,0.6-0.9,0.8c-0.4,0.2-0.9,0.2-1.5,0.2c-0.9,0-1.5-0.2-2-0.6
			C-131.1,59.3-131.4,58.7-131.5,57.9"/>
	</g>
	<g transform="matrix(1,0,0,1,209.213,65.0843)">
		<path class="st0" d="M-135.7,63.2v-6.8h4.7v1.2h-3.3v1.6h2.9v1.2h-2.9v2.9H-135.7z"/>
	</g>
	<g transform="matrix(1,0,0,1,220.19,69.7422)">
		<path class="st0" d="M-138.6,55.1c0,0.8,0.2,1.4,0.5,1.8c0.4,0.4,0.8,0.6,1.4,0.6c0.6,0,1-0.2,1.4-0.6c0.4-0.4,0.5-1,0.5-1.8
			c0-0.8-0.2-1.4-0.5-1.8c-0.3-0.4-0.8-0.6-1.4-0.6c-0.6,0-1,0.2-1.4,0.6C-138.4,53.7-138.6,54.3-138.6,55.1 M-140,55.2
			c0-0.7,0.1-1.3,0.3-1.8c0.2-0.3,0.4-0.7,0.6-0.9c0.3-0.3,0.6-0.5,0.9-0.6c0.4-0.2,0.9-0.3,1.5-0.3c1,0,1.8,0.3,2.4,0.9
			c0.6,0.6,0.9,1.5,0.9,2.6c0,1.1-0.3,2-0.9,2.6c-0.6,0.6-1.4,0.9-2.4,0.9c-1,0-1.8-0.3-2.4-0.9C-139.7,57.1-140,56.3-140,55.2"/>
	</g>
	<g transform="matrix(1,0,0,1,232.128,70.4542)">
		<path class="st0" d="M-141.7,53.9h1c0.7,0,1.1,0,1.2-0.1c0.2-0.1,0.3-0.2,0.4-0.3c0.1-0.1,0.1-0.3,0.1-0.5c0-0.2-0.1-0.4-0.2-0.6
			c-0.1-0.1-0.3-0.2-0.5-0.3c-0.1,0-0.4,0-1,0h-1.1V53.9z M-143.1,57.8V51h2.9c0.7,0,1.3,0.1,1.6,0.2c0.3,0.1,0.6,0.3,0.8,0.7
			c0.2,0.3,0.3,0.7,0.3,1.1c0,0.5-0.2,0.9-0.5,1.3c-0.3,0.3-0.8,0.5-1.4,0.6c0.3,0.2,0.5,0.4,0.7,0.6c0.2,0.2,0.5,0.6,0.8,1.1
			l0.8,1.3h-1.7l-1-1.5c-0.4-0.5-0.6-0.9-0.7-1c-0.1-0.1-0.3-0.2-0.4-0.3c-0.1-0.1-0.4-0.1-0.7-0.1h-0.3v2.9H-143.1z"/>
	</g>
	<g transform="matrix(1,0,0,1,-76.9582,-207.095)">
		<rect x="177.7" y="328.5" class="st1" width="1.4" height="6.8"/>
	</g>
	<g transform="matrix(1,0,0,1,251.358,65.0843)">
		<path class="st0" d="M-146.8,63.2v-6.8h1.3l2.8,4.6v-4.6h1.3v6.8h-1.4l-2.8-4.5v4.5H-146.8z"/>
	</g>
	<g transform="matrix(1,0,0,1,264.317,65.0843)">
		<path class="st0" d="M-150.3,63.2v-5.7h-2v-1.2h5.4v1.2h-2v5.7H-150.3z"/>
	</g>
	<g transform="matrix(1,0,0,1,271.657,65.0843)">
		<path class="st0" d="M-152.2,63.2v-6.8h5.1v1.2h-3.7V59h3.4v1.2h-3.4v1.9h3.8v1.2H-152.2z"/>
	</g>
	<g transform="matrix(1,0,0,1,283.709,70.4542)">
		<path class="st0" d="M-155.4,53.9h1c0.7,0,1.1,0,1.2-0.1c0.2-0.1,0.3-0.2,0.4-0.3c0.1-0.1,0.1-0.3,0.1-0.5c0-0.2-0.1-0.4-0.2-0.6
			c-0.1-0.1-0.3-0.2-0.5-0.3c-0.1,0-0.4,0-1,0h-1.1V53.9z M-156.8,57.8V51h2.9c0.7,0,1.3,0.1,1.6,0.2c0.3,0.1,0.6,0.3,0.8,0.7
			c0.2,0.3,0.3,0.7,0.3,1.1c0,0.5-0.2,0.9-0.5,1.3c-0.3,0.3-0.8,0.5-1.4,0.6c0.3,0.2,0.5,0.4,0.7,0.6c0.2,0.2,0.5,0.6,0.8,1.1
			l0.8,1.3h-1.7l-1-1.5c-0.4-0.5-0.6-0.9-0.7-1c-0.1-0.1-0.3-0.2-0.4-0.3c-0.1-0.1-0.4-0.1-0.7-0.1h-0.3v2.9H-156.8z"/>
	</g>
	<g transform="matrix(1,0,0,1,292.726,65.0843)">
		<path class="st0" d="M-157.8,63.2v-6.8h1.3l2.8,4.6v-4.6h1.3v6.8h-1.4l-2.8-4.5v4.5H-157.8z"/>
	</g>
	<g transform="matrix(1,0,0,1,308.522,68.7667)">
		<path class="st0" d="M-162,56.8l-0.9-2.5l-0.9,2.5H-162z M-159.4,59.5h-1.5l-0.6-1.6h-2.7l-0.6,1.6h-1.5l2.7-6.8h1.5L-159.4,59.5z
			"/>
	</g>
	<g transform="matrix(1,0,0,1,315.603,65.0843)">
		<path class="st0" d="M-163.8,63.2v-5.7h-2v-1.2h5.4v1.2h-2v5.7H-163.8z"/>
	</g>
	<g transform="matrix(1,0,0,1,-76.9582,-207.095)">
		<rect x="234.1" y="328.5" class="st1" width="1.4" height="6.8"/>
	</g>
	<g transform="matrix(1,0,0,1,329.606,69.7422)">
		<path class="st0" d="M-167.6,55.1c0,0.8,0.2,1.4,0.5,1.8c0.4,0.4,0.8,0.6,1.4,0.6c0.6,0,1-0.2,1.4-0.6c0.4-0.4,0.5-1,0.5-1.8
			c0-0.8-0.2-1.4-0.5-1.8c-0.3-0.4-0.8-0.6-1.4-0.6c-0.6,0-1,0.2-1.4,0.6C-167.4,53.7-167.6,54.3-167.6,55.1 M-169,55.2
			c0-0.7,0.1-1.3,0.3-1.8c0.2-0.3,0.4-0.7,0.6-0.9c0.3-0.3,0.6-0.5,0.9-0.6c0.4-0.2,0.9-0.3,1.5-0.3c1,0,1.8,0.3,2.4,0.9
			c0.6,0.6,0.9,1.5,0.9,2.6c0,1.1-0.3,2-0.9,2.6c-0.6,0.6-1.4,0.9-2.4,0.9c-1,0-1.8-0.3-2.4-0.9C-168.7,57.1-169,56.3-169,55.2"/>
	</g>
	<g transform="matrix(1,0,0,1,339.678,65.0843)">
		<path class="st0" d="M-170.2,63.2v-6.8h1.3l2.8,4.6v-4.6h1.3v6.8h-1.4l-2.8-4.5v4.5H-170.2z"/>
	</g>
	<g transform="matrix(1,0,0,1,355.474,68.7667)">
		<path class="st0" d="M-174.4,56.8l-0.9-2.5l-0.9,2.5H-174.4z M-171.9,59.5h-1.5L-174,58h-2.7l-0.6,1.6h-1.5l2.7-6.8h1.5
			L-171.9,59.5z"/>
	</g>
	<g transform="matrix(1,0,0,1,361.475,65.1613)">
		<path class="st0" d="M-176,63.1v-6.8h1.4V62h3.4v1.2H-176z"/>
	</g>
	<g transform="matrix(1,0,0,1,375.257,68.118)">
		<path class="st0" d="M-179.6,57.9l1.3-0.1c0.1,0.5,0.2,0.8,0.5,1c0.2,0.2,0.6,0.3,1,0.3c0.4,0,0.8-0.1,1-0.3
			c0.2-0.2,0.3-0.4,0.3-0.7c0-0.2,0-0.3-0.1-0.4c-0.1-0.1-0.3-0.2-0.5-0.3c-0.2-0.1-0.5-0.2-1.1-0.3c-0.7-0.2-1.3-0.4-1.6-0.7
			c-0.4-0.4-0.6-0.8-0.6-1.4c0-0.3,0.1-0.7,0.3-1c0.2-0.3,0.5-0.5,0.9-0.7c0.4-0.2,0.8-0.2,1.3-0.2c0.9,0,1.5,0.2,1.9,0.6
			c0.4,0.4,0.7,0.9,0.7,1.5l-1.4,0.1c-0.1-0.4-0.2-0.6-0.4-0.8c-0.2-0.2-0.5-0.2-0.9-0.2c-0.4,0-0.7,0.1-0.9,0.2
			c-0.1,0.1-0.2,0.2-0.2,0.4c0,0.2,0.1,0.3,0.2,0.4c0.2,0.1,0.6,0.3,1.3,0.5c0.7,0.2,1.2,0.3,1.5,0.5c0.3,0.2,0.6,0.4,0.8,0.7
			c0.2,0.3,0.3,0.7,0.3,1.1c0,0.4-0.1,0.8-0.3,1.1c-0.2,0.3-0.5,0.6-0.9,0.8c-0.4,0.2-0.9,0.2-1.5,0.2c-0.9,0-1.5-0.2-2-0.6
			C-179.3,59.3-179.6,58.7-179.6,57.9"/>
	</g>
	<g transform="matrix(1,0,0,1,385.905,65.0843)">
		<path class="st0" d="M-182.5,63.2v-6.8h1.4v2.7h2.7v-2.7h1.4v6.8h-1.4v-3h-2.7v3H-182.5z"/>
	</g>
	<g transform="matrix(1,0,0,1,-76.9582,-207.095)">
		<rect x="288.3" y="328.5" class="st1" width="1.4" height="6.8"/>
	</g>
	<g transform="matrix(1,0,0,1,403.767,72.8159)">
		<path class="st0" d="M-187.2,49.8v1.9h0.8c0.5,0,0.9,0,1.1-0.1c0.2-0.1,0.3-0.2,0.4-0.3c0.1-0.2,0.2-0.3,0.2-0.5
			c0-0.2-0.1-0.5-0.2-0.6c-0.1-0.2-0.3-0.3-0.6-0.3c-0.2,0-0.5,0-1,0H-187.2z M-188.6,55.5v-6.8h2.2c0.8,0,1.4,0,1.6,0.1
			c0.4,0.1,0.7,0.3,1,0.7c0.3,0.3,0.4,0.8,0.4,1.3c0,0.4-0.1,0.8-0.2,1.1c-0.2,0.3-0.3,0.5-0.6,0.7c-0.2,0.2-0.5,0.3-0.7,0.3
			c-0.3,0.1-0.8,0.1-1.4,0.1h-0.9v2.6H-188.6z"/>
	</g>
	<g transform="matrix(1,0,0,1,413.933,72.8159)">
		<path class="st0" d="M-189.9,49.8v1.9h0.8c0.5,0,0.9,0,1.1-0.1c0.2-0.1,0.3-0.2,0.4-0.3c0.1-0.2,0.2-0.3,0.2-0.5
			c0-0.2-0.1-0.5-0.2-0.6c-0.1-0.2-0.3-0.3-0.6-0.3c-0.2,0-0.5,0-1,0H-189.9z M-191.3,55.5v-6.8h2.2c0.8,0,1.4,0,1.6,0.1
			c0.4,0.1,0.7,0.3,1,0.7c0.3,0.3,0.4,0.8,0.4,1.3c0,0.4-0.1,0.8-0.2,1.1c-0.2,0.3-0.3,0.5-0.6,0.7c-0.2,0.2-0.5,0.3-0.7,0.3
			c-0.3,0.1-0.8,0.1-1.4,0.1h-0.9v2.6H-191.3z"/>
	</g>
	<g transform="matrix(1,0,0,1,-76.9582,-207.095)">
		<rect x="307" y="328.5" class="st1" width="1.4" height="6.8"/>
	</g>
	<g transform="matrix(1,0,0,1,427.346,65.0843)">
		<path class="st0" d="M-193.4,63.2v-6.8h1.3l2.8,4.6v-4.6h1.3v6.8h-1.4l-2.8-4.5v4.5H-193.4z"/>
	</g>
	<g transform="matrix(1,0,0,1,442.54,68.5055)">
		<path class="st0" d="M-197.5,57.3v-1.2h3v2.7c-0.3,0.3-0.7,0.5-1.3,0.7c-0.5,0.2-1.1,0.3-1.7,0.3c-0.7,0-1.3-0.1-1.9-0.4
			c-0.5-0.3-0.9-0.7-1.2-1.3c-0.3-0.6-0.4-1.2-0.4-1.8c0-0.7,0.1-1.3,0.4-1.9c0.3-0.6,0.7-1,1.3-1.3c0.4-0.2,1-0.3,1.6-0.3
			c0.8,0,1.5,0.2,2,0.5c0.5,0.4,0.8,0.8,0.9,1.5l-1.4,0.3c-0.1-0.3-0.3-0.6-0.5-0.8c-0.3-0.2-0.6-0.3-1-0.3c-0.6,0-1.1,0.2-1.4,0.6
			c-0.4,0.4-0.5,1-0.5,1.7c0,0.8,0.2,1.4,0.5,1.8c0.4,0.4,0.8,0.6,1.4,0.6c0.3,0,0.6-0.1,0.9-0.2c0.3-0.1,0.5-0.3,0.7-0.4v-0.9
			H-197.5z"/>
	</g>
</g>
</svg>
