<?xml version="1.0" encoding="UTF-8"?>
<svg id="Camada_1" data-name="Camada 1" xmlns="http://www.w3.org/2000/svg" viewBox="0 0 50 50">
  <defs>
    <style>
      .cls-1 {
        fill: #12385a;
      }

      .cls-1, .cls-2 {
        stroke-width: 0px;
      }

      .cls-2 {
        fill: #fff;
      }
    </style>
  </defs>
  <circle class="cls-2" cx="25" cy="25" r="25"/>
  <g>
    <path class="cls-1" d="M26.93,21.59c.41-.46.75-.93,1.17-1.33,1.3-1.22,2.83-1.84,4.62-1.82.98,0,1.96.08,2.91.35,2.17.63,3.43,2.12,4.03,4.24.45,1.59.53,3.22.54,4.86,0,3.45,0,6.91,0,10.36,0,.32-.09.41-.41.41-1.78-.01-3.56-.02-5.34,0-.31,0-.38-.09-.38-.39,0-3.29.01-6.57,0-9.86,0-.82-.06-1.65-.29-2.45-.43-1.47-1.48-2.23-3.03-2.14-2.11.11-3.21,1.16-3.48,3.3-.06.51-.09,1.02-.09,1.54,0,3.2,0,6.39,0,9.59,0,.32-.08.41-.4.41-1.79-.02-3.58-.01-5.38,0-.29,0-.37-.08-.37-.37,0-6.33,0-12.65,0-18.98,0-.31.1-.39.4-.38,1.7.01,3.4.01,5.11,0,.31,0,.39.1.39.4-.02.76,0,1.51,0,2.27Z"/>
    <path class="cls-1" d="M17.19,28.82c0,3.13,0,6.26,0,9.39,0,.35-.09.45-.45.45-1.78-.02-3.56-.02-5.34,0-.29,0-.37-.07-.37-.36,0-6.34,0-12.68,0-19.01,0-.26.06-.36.34-.35,1.8.01,3.61.02,5.41,0,.35,0,.39.13.39.43,0,3.16,0,6.31,0,9.47Z"/>
    <path class="cls-1" d="M17.68,12.65c0,1.97-1.59,3.57-3.55,3.57-1.94,0-3.54-1.6-3.55-3.54,0-1.96,1.6-3.57,3.56-3.56,1.94,0,3.54,1.6,3.55,3.53Z"/>
  </g>
</svg>