<?xml version="1.0" encoding="UTF-8"?>
<svg id="Camada_1" data-name="Camada 1" xmlns="http://www.w3.org/2000/svg" viewBox="0 0 50 50">
  <defs>
    <style>
      .cls-1 {
        fill: #12385a;
      }

      .cls-1, .cls-2 {
        stroke-width: 0px;
      }

      .cls-2 {
        fill: #fff;
      }
    </style>
  </defs>
  <path class="cls-2" d="M50,25C50,11.19,38.81,0,25,0S0,11.19,0,25c0,12.48,9.14,22.82,21.09,24.7v-17.47h-6.35v-7.23h6.35v-5.51c0-6.27,3.73-9.73,9.44-9.73,2.74,0,5.6.49,5.6.49v6.15h-3.15c-3.11,0-4.07,1.93-4.07,3.9v4.69h6.93l-1.11,7.23h-5.83v17.47c11.95-1.88,21.09-12.22,21.09-24.7Z"/>
  <path class="cls-1" d="M34.73,32.23l1.11-7.23h-6.93v-4.69c0-1.98.97-3.9,4.07-3.9h3.15v-6.15s-2.86-.49-5.6-.49c-5.71,0-9.44,3.46-9.44,9.73v5.51h-6.35v7.23h6.35v17.47c1.27.2,2.58.3,3.91.3s2.63-.1,3.91-.3v-17.47h5.83Z"/>
</svg>