<?xml version="1.0" encoding="UTF-8"?>
<svg id="Camada_1" data-name="Camada 1" xmlns="http://www.w3.org/2000/svg" xmlns:xlink="http://www.w3.org/1999/xlink" viewBox="0 0 57.21 57.21">
  <defs>
    <style>
      .cls-1 {
        fill: #25336a;
      }

      .cls-1, .cls-2, .cls-3, .cls-4, .cls-5, .cls-6, .cls-7 {
        stroke-width: 0px;
      }

      .cls-8 {
        clip-path: url(#clippath-2);
      }

      .cls-2 {
        fill: #efbf2c;
      }

      .cls-3 {
        fill: none;
      }

      .cls-9 {
        clip-path: url(#clippath-1);
      }

      .cls-10 {
        clip-path: url(#clippath);
      }

      .cls-4 {
        fill: #fff;
      }

      .cls-5 {
        fill: #589942;
      }

      .cls-6 {
        fill: #ab1924;
      }

      .cls-7 {
        fill: #f5d833;
      }
    </style>
    <clipPath id="clippath">
      <circle class="cls-3" cx="-48.6" cy="28.6" r="28.6"/>
    </clipPath>
    <clipPath id="clippath-1">
      <circle class="cls-3" cx="28.6" cy="28.6" r="28.6"/>
    </clipPath>
    <clipPath id="clippath-2">
      <circle class="cls-3" cx="28.6" cy="28.6" r="13.49"/>
    </clipPath>
  </defs>
  <g class="cls-10">
    <g>
      <rect class="cls-6" x="-77.21" width="85.81" height="57.21"/>
      <rect class="cls-2" x="-77.21" y="14.3" width="85.81" height="28.6"/>
    </g>
  </g>
  <g class="cls-9">
    <g>
      <rect class="cls-5" x="-12.26" width="81.73" height="57.21"/>
      <polygon class="cls-7" points="28.6 8.17 -3.39 28.6 28.6 49.04 60.6 28.6 28.6 8.17"/>
      <g>
        <circle class="cls-1" cx="28.6" cy="28.6" r="13.49"/>
        <g>
          <polygon class="cls-4" points="32.93 24.21 32.8 23.81 32.67 24.21 32.25 24.21 32.59 24.46 32.46 24.86 32.8 24.61 33.14 24.86 33.01 24.46 33.35 24.21 32.93 24.21"/>
          <polygon class="cls-4" points="32.3 28.09 32.53 28.26 32.44 27.99 32.68 27.82 32.39 27.82 32.3 27.54 32.21 27.82 31.92 27.82 32.15 27.99 32.06 28.26 32.3 28.09"/>
          <polygon class="cls-4" points="23.61 29.03 23.49 28.68 23.38 29.03 23.01 29.03 23.31 29.25 23.19 29.6 23.49 29.38 23.79 29.6 23.68 29.25 23.98 29.03 23.61 29.03"/>
          <polygon class="cls-4" points="17.75 26.06 17.62 25.63 17.48 26.06 17.03 26.06 17.39 26.32 17.25 26.75 17.62 26.48 17.98 26.75 17.84 26.32 18.2 26.06 17.75 26.06"/>
          <polygon class="cls-4" points="18.92 31.67 18.78 31.24 18.65 31.67 18.2 31.67 18.56 31.93 18.42 32.35 18.78 32.09 19.14 32.35 19.01 31.93 19.37 31.67 18.92 31.67"/>
          <polygon class="cls-4" points="17.24 32.93 17.15 32.63 17.05 32.93 16.74 32.93 16.99 33.11 16.9 33.4 17.15 33.22 17.4 33.4 17.3 33.11 17.55 32.93 17.24 32.93"/>
          <polygon class="cls-4" points="20.17 30.95 20.11 30.76 20.05 30.95 19.86 30.95 20.01 31.06 19.95 31.24 20.11 31.13 20.27 31.24 20.21 31.06 20.36 30.95 20.17 30.95"/>
          <polygon class="cls-4" points="21.72 33.03 21.61 32.69 21.5 33.03 21.14 33.03 21.43 33.24 21.32 33.57 21.61 33.37 21.89 33.57 21.78 33.24 22.07 33.03 21.72 33.03"/>
          <polygon class="cls-4" points="21.29 34.39 21.18 34.06 21.07 34.39 20.71 34.39 21 34.6 20.89 34.94 21.18 34.73 21.47 34.94 21.36 34.6 21.64 34.39 21.29 34.39"/>
          <polygon class="cls-4" points="23.32 35.58 23.19 35.18 23.06 35.58 22.63 35.58 22.98 35.83 22.85 36.23 23.19 35.98 23.53 36.23 23.4 35.83 23.74 35.58 23.32 35.58"/>
          <polygon class="cls-4" points="28.74 34.48 28.61 34.08 28.47 34.48 28.05 34.48 28.39 34.73 28.26 35.13 28.61 34.89 28.95 35.13 28.82 34.73 29.16 34.48 28.74 34.48"/>
          <polygon class="cls-4" points="28.05 32.95 28.21 32.83 28.01 32.83 27.95 32.64 27.89 32.83 27.69 32.83 27.85 32.95 27.79 33.14 27.95 33.02 28.11 33.14 28.05 32.95"/>
          <polygon class="cls-4" points="27.32 31.86 27.23 31.58 27.14 31.86 26.84 31.86 27.08 32.03 26.99 32.32 27.23 32.14 27.47 32.32 27.38 32.03 27.62 31.86 27.32 31.86"/>
          <polygon class="cls-4" points="28.33 31.18 28.62 30.97 28.91 31.18 28.8 30.84 29.09 30.63 28.73 30.63 28.62 30.29 28.51 30.63 28.15 30.63 28.44 30.84 28.33 31.18"/>
          <polygon class="cls-4" points="30.29 31.83 30.17 31.49 30.06 31.83 29.7 31.83 29.99 32.04 29.88 32.39 30.17 32.18 30.47 32.39 30.35 32.04 30.65 31.83 30.29 31.83"/>
          <polygon class="cls-4" points="37.7 33.82 38.06 33.56 38.41 33.82 38.28 33.4 38.64 33.15 38.19 33.15 38.06 32.73 37.92 33.15 37.48 33.15 37.84 33.4 37.7 33.82"/>
          <polygon class="cls-4" points="40.29 33.35 40.02 33.35 39.94 33.1 39.85 33.35 39.59 33.35 39.8 33.51 39.72 33.76 39.94 33.61 40.15 33.76 40.07 33.51 40.29 33.35"/>
          <polygon class="cls-4" points="38.73 34.36 38.61 34.01 38.5 34.36 38.13 34.36 38.43 34.58 38.31 34.94 38.61 34.72 38.91 34.94 38.8 34.58 39.1 34.36 38.73 34.36"/>
          <polygon class="cls-4" points="37.91 35.46 37.79 35.09 37.67 35.46 37.29 35.46 37.6 35.68 37.48 36.05 37.79 35.83 38.11 36.05 37.99 35.68 38.3 35.46 37.91 35.46"/>
          <polygon class="cls-4" points="36.78 36.17 36.7 35.91 36.61 36.17 36.33 36.17 36.56 36.34 36.47 36.6 36.7 36.44 36.92 36.6 36.84 36.34 37.06 36.17 36.78 36.17"/>
          <polygon class="cls-4" points="35.08 36.35 35.31 36.19 35.54 36.35 35.45 36.08 35.68 35.92 35.39 35.92 35.31 35.65 35.22 35.92 34.94 35.92 35.17 36.08 35.08 36.35"/>
          <polygon class="cls-4" points="35.36 36.87 35.25 37.21 34.89 37.21 35.18 37.42 35.07 37.77 35.36 37.56 35.66 37.77 35.54 37.42 35.84 37.21 35.48 37.21 35.36 36.87"/>
          <polygon class="cls-4" points="35.43 38.61 35.34 38.35 35.26 38.61 34.99 38.61 35.21 38.77 35.12 39.03 35.34 38.87 35.56 39.03 35.48 38.77 35.7 38.61 35.43 38.61"/>
          <polygon class="cls-4" points="33.87 36.38 33.79 36.14 33.71 36.38 33.45 36.38 33.66 36.54 33.58 36.78 33.79 36.63 34 36.78 33.92 36.54 34.13 36.38 33.87 36.38"/>
          <polygon class="cls-4" points="31.67 36.05 31.58 35.78 31.5 36.05 31.22 36.05 31.45 36.21 31.36 36.47 31.58 36.31 31.81 36.47 31.72 36.21 31.95 36.05 31.67 36.05"/>
          <polygon class="cls-4" points="32.75 37.54 32.64 37.19 32.52 37.54 32.16 37.54 32.45 37.75 32.34 38.1 32.64 37.89 32.94 38.1 32.82 37.75 33.12 37.54 32.75 37.54"/>
          <polygon class="cls-4" points="28.65 39.09 28.6 38.94 28.55 39.09 28.39 39.09 28.52 39.19 28.47 39.35 28.6 39.25 28.73 39.35 28.68 39.19 28.82 39.09 28.65 39.09"/>
        </g>
        <g class="cls-8">
          <path class="cls-4" d="M15.29,23.3c-.27.67-.48,1.35-.65,2.06,2.01-.41,4.1-.63,6.23-.63,8.25,0,15.75,3.23,21.3,8.49.23-.68.41-1.38.54-2.1-5.81-5.17-13.46-8.3-21.85-8.3-1.9,0-3.77.16-5.58.47Z"/>
        </g>
        <g>
          <path class="cls-5" d="M17.51,23.45c-.12-.1-.28-.13-.44-.11s-.31.08-.41.21c-.1.14-.15.34-.13.53s.11.38.25.49c.12.1.28.13.44.11.16-.02.31-.08.41-.21.1-.14.15-.34.13-.53s-.11-.38-.25-.49ZM17.42,24.33c-.06.07-.14.1-.22.11-.08,0-.17,0-.24-.06-.09-.07-.15-.2-.17-.34-.01-.14.01-.28.09-.37.06-.07.14-.1.22-.11.08,0,.17,0,.24.06.09.07.15.2.17.34.01.14-.01.28-.09.37Z"/>
          <path class="cls-5" d="M19.41,24.3c0-.07-.02-.23-.03-.29-.02-.12-.11-.14-.15-.17.08-.06.14-.1.16-.21.02-.11,0-.2-.03-.26-.05-.14-.18-.19-.31-.19l-.71.04.08,1.28.26-.02-.03-.51.31-.02c.09,0,.16.03.17.12,0,.05,0,.09,0,.14,0,.05,0,.09.01.12,0,.04.02.08.04.12l.28-.02v-.05s-.05-.03-.06-.1ZM19,23.75l-.36.02-.02-.34.36-.02c.12,0,.16.04.17.13.02.13-.08.2-.14.2Z"/>
          <path class="cls-5" d="M20.65,23.14h-.6s.02,1.29.02,1.29h.58c.14-.01.28-.1.36-.24.06-.09.11-.25.11-.48,0-.13-.03-.23-.06-.28-.12-.23-.28-.3-.42-.29ZM20.82,24.03c-.06.13-.15.18-.27.18h-.21s-.01-.84-.01-.84h.24c.1,0,.16.01.23.11.05.06.07.17.07.28,0,.11-.01.21-.04.27Z"/>
          <polygon class="cls-5" points="21.73 24.43 22.69 24.47 22.7 24.25 22.01 24.22 22.02 23.89 22.64 23.92 22.64 23.7 22.03 23.67 22.04 23.38 22.71 23.41 22.72 23.19 21.79 23.15 21.73 24.43"/>
          <polygon class="cls-5" points="23.92 24.27 23.78 23.27 23.39 23.23 23.27 24.51 23.53 24.53 23.63 23.5 23.76 24.56 24.03 24.58 24.35 23.57 24.25 24.6 24.52 24.63 24.64 23.35 24.25 23.31 23.92 24.27"/>
          <polygon class="cls-5" points="25.99 24.84 26.81 24.98 26.84 24.8 26.25 24.69 26.3 24.41 26.82 24.5 26.85 24.32 26.33 24.22 26.38 23.98 26.94 24.08 26.97 23.89 26.18 23.75 25.99 24.84"/>
          <path class="cls-5" d="M29.06,24.18l-.55-.14-.32,1.24.26.07.11-.44.31.08c.14.05.29.02.41-.13.06-.08.12-.25.1-.38-.04-.22-.23-.27-.31-.29ZM29.07,24.69s-.08.09-.17.07l-.29-.07.1-.37.27.07c.06.02.13.05.14.14,0,.06-.03.14-.05.17Z"/>
          <path class="cls-5" d="M30.77,24.67l-.68-.21-.38,1.23.25.08.15-.48.3.09c.09.03.13.09.11.17-.02.04-.03.09-.05.13-.01.05-.02.08-.03.11,0,.04,0,.08,0,.12l.27.08v-.05s-.02-.05,0-.12c.02-.06.07-.22.07-.28.02-.12-.05-.17-.08-.21.1-.02.16-.05.23-.14.06-.09.07-.19.07-.25,0-.14-.1-.24-.22-.28ZM30.73,25.04c-.02.13-.15.16-.21.14l-.35-.11.1-.32.34.11c.11.04.14.1.11.19Z"/>
          <path class="cls-5" d="M32.23,25.15c-.15-.06-.32-.07-.46,0-.16.08-.29.23-.36.41s-.07.39,0,.55c.06.14.19.24.35.3s.32.07.46,0c.16-.08.29-.23.36-.41.07-.18.07-.39,0-.55-.06-.14-.19-.24-.35-.3ZM32.34,25.91c-.05.13-.14.25-.24.29-.09.03-.17.03-.25,0-.08-.03-.15-.08-.19-.16-.05-.1-.04-.25,0-.38.05-.13.14-.25.24-.29.09-.03.17-.03.25,0,.08.03.15.08.19.16.05.1.04.25,0,.38Z"/>
          <path class="cls-5" d="M33.9,25.83c-.1-.05-.18-.06-.24-.06-.47,0-.77.58-.61.97.03.08.07.19.28.3.23.12.38.04.47-.01l-.04.16.15.06.28-.64-.47-.21-.09.2.27.12s-.04.09-.14.13c-.11.06-.24.04-.32,0-.13-.07-.17-.21-.18-.33,0-.16.13-.46.34-.52.09-.01.15-.01.24.02.13.05.22.16.2.32l.22.1s.06-.13-.02-.32c-.07-.17-.22-.25-.33-.3Z"/>
          <path class="cls-5" d="M35.69,26.7l-.64-.32-.58,1.15.24.12.23-.45.28.14c.08.04.12.11.08.19-.02.04-.05.08-.07.12s-.04.08-.05.11c-.02.04-.02.08-.02.12l.25.13.02-.04s-.03-.05,0-.12c.03-.06.1-.21.12-.26.04-.11-.02-.18-.05-.22.1,0,.17-.02.25-.1.08-.08.1-.18.11-.24.03-.14-.06-.25-.17-.32ZM35.59,27.05c-.04.12-.17.13-.23.1l-.32-.16.15-.3.32.16c.11.05.12.12.08.2Z"/>
          <polygon class="cls-5" points="37.28 27.82 37.39 27.63 36.58 27.17 35.95 28.29 36.78 28.76 36.89 28.57 36.29 28.23 36.45 27.94 36.99 28.24 37.09 28.05 36.56 27.75 36.7 27.49 37.28 27.82"/>
          <path class="cls-5" d="M38.36,28.2c-.27-.17-.47-.12-.6.04-.13.16-.09.31,0,.43.11.14.32.27.35.39.02.09-.05.17-.12.18-.05.01-.13-.01-.2-.06-.08-.04-.15-.11-.16-.19-.01-.06,0-.11.03-.14l-.22-.14c-.06.11-.08.24-.03.38.04.11.16.21.22.25.12.08.26.14.39.14.19,0,.41-.22.37-.43-.02-.11-.14-.22-.19-.27-.04-.04-.22-.2-.23-.24-.04-.05-.05-.08,0-.15.06-.08.17-.07.28,0,.15.1.18.23.11.31l.21.13s.08-.14.07-.25c-.02-.2-.22-.33-.28-.37Z"/>
          <path class="cls-5" d="M39.71,29.11c-.26-.18-.46-.14-.6.01-.14.16-.11.3-.02.43.1.14.31.29.33.41.02.09-.06.17-.13.17-.05,0-.13-.02-.2-.07-.08-.05-.14-.12-.15-.2,0-.06.01-.11.03-.14l-.21-.15c-.06.1-.09.24-.05.37.04.11.15.22.21.26.12.08.25.15.38.16.19,0,.43-.2.39-.41-.02-.12-.12-.23-.17-.28-.03-.04-.21-.21-.22-.25-.03-.05-.05-.08,0-.15.07-.08.17-.06.28.01.15.11.16.24.1.32l.2.14s.09-.14.08-.25c-.01-.2-.2-.34-.26-.38Z"/>
          <path class="cls-5" d="M41.35,30.55c-.01-.16-.11-.29-.24-.39-.13-.1-.28-.16-.44-.14-.17.02-.35.13-.47.28s-.18.35-.17.52c.01.16.11.29.24.39.13.1.28.16.44.14.17-.02.35-.13.47-.28s.18-.35.17-.52ZM40.98,30.92c-.09.11-.21.19-.32.2-.09,0-.17-.03-.24-.08-.07-.05-.12-.12-.13-.21-.02-.11.03-.25.12-.36.09-.11.21-.19.32-.2.09,0,.17.03.24.08.07.05.12.12.13.21.02.11-.03.25-.12.36Z"/>
        </g>
      </g>
    </g>
  </g>
</svg>