<?xml version="1.0" encoding="UTF-8"?>
<svg id="Camada_1" data-name="Camada 1" xmlns="http://www.w3.org/2000/svg" viewBox="0 0 380.29 121.09">
  <defs>
    <style>
      .cls-1 {
        fill: #000;
      }

      .cls-1, .cls-2 {
        stroke-width: 0px;
      }

      .cls-2 {
        fill: #fff;
      }
    </style>
  </defs>
  <rect class="cls-2" width="380.29" height="121.09"/>
  <path class="cls-1" d="M36.44,84.98h6.93c1.67,0,3.08.45,3.85,1.35.71.71,1.03,1.47,1.03,2.5h0c0,1.67-.9,2.63-1.92,3.14,1.67.71,2.82,1.67,2.82,3.59h0c0,2.69-2.24,4.04-5.51,4.04h-6.99v-14.68h-.19v.06ZM42.66,90.94c1.47,0,2.37-.45,2.37-1.6h0c0-1.03-.77-1.6-2.18-1.6h-3.27v3.14h3.08v.06ZM43.56,96.97c1.47,0,2.24-.58,2.24-1.6h0c0-1.03-.77-1.6-2.37-1.6h-3.85v3.27h3.98v-.06ZM55.36,93.89l-5.64-9.04h3.85l3.53,5.96,3.59-5.96h3.72l-5.64,8.91v5.9h-3.33v-5.77h-.06ZM72.74,84.98h3.27v11.86h7.37v2.95h-10.64v-14.81ZM90.95,84.85h2.95l6.35,14.94h-3.4l-1.35-3.27h-6.35l-1.35,3.27h-3.27l6.41-14.94ZM94.35,93.57l-1.92-4.87-1.92,4.87h3.85ZM108.97,84.98h6.09c3.53,0,5.64,2.18,5.64,5.07h0c0,3.4-2.69,5.19-5.96,5.19h-2.5v4.42h-3.27s0-14.68,0-14.68ZM114.8,92.41c1.6,0,2.63-1.03,2.63-2.24h0c0-1.47-1.03-2.24-2.63-2.24h-2.5v4.55h2.5v-.06ZM122.5,92.41h0c0-4.3,3.27-7.69,7.89-7.69s7.89,3.4,7.89,7.69h0c0,4.17-3.27,7.69-7.89,7.69-4.62-.13-7.89-3.53-7.89-7.69ZM134.87,92.41h0c0-2.63-1.92-4.75-4.55-4.75s-4.42,2.05-4.42,4.62h0c0,2.63,1.92,4.62,4.55,4.62,2.56.13,4.42-1.99,4.42-4.49ZM140.07,97.61l1.92-2.24c1.35,1.15,2.69,1.8,4.42,1.8,1.35,0,2.18-.58,2.18-1.35h0c0-.77-.58-1.22-2.95-1.92-2.95-.77-5-1.6-5-4.55h0c0-2.69,2.18-4.55,5.19-4.55,2.18,0,3.98.71,5.51,1.92l-1.67,2.5c-1.35-.9-2.63-1.47-3.85-1.47s-1.92.58-1.92,1.22h0c0,1.03.71,1.22,3.14,1.92,3.08.77,4.75,1.92,4.75,4.42h0c0,2.95-2.24,4.62-5.45,4.62-2.24.06-4.49-.71-6.28-2.31ZM157.83,87.86h-4.55v-3.01h12.31v3.08h-4.55v11.86h-3.27v-11.93h.06ZM168.09,84.98h11.22v2.95h-7.89v3.08h6.99v2.95h-6.99v3.14h8.02v2.95h-11.29v-15.07h-.06ZM196.94,98.31c-1.22,1.03-2.63,1.67-4.3,1.67-2.82,0-5-1.67-5-4.3h0c0-1.92,1.03-3.27,2.95-4.04-.71-1.03-1.03-1.92-1.03-2.95h0c0-2.05,1.6-3.98,4.55-3.98,2.5,0,4.17,1.67,4.17,3.72h0c0,2.05-1.22,3.14-3.14,3.85l1.92,1.92c.45-.77,1.03-1.6,1.47-2.63l2.37,1.35c-.58,1.03-1.22,2.18-1.92,3.14l2.18,2.18-2.37,1.67-1.86-1.6ZM195.15,96.45l-2.82-2.95c-1.03.58-1.35,1.22-1.35,1.92h0c0,1.03.9,1.67,2.05,1.67.71.19,1.41-.13,2.12-.64ZM195.34,88.7h0c0-.9-.58-1.47-1.35-1.47-.9,0-1.47.58-1.47,1.47h0c0,.71.26,1.15.9,1.8,1.28-.32,1.92-.9,1.92-1.8ZM208.81,97.61l1.92-2.24c1.35,1.15,2.69,1.8,4.42,1.8,1.35,0,2.18-.58,2.18-1.35h0c0-.77-.58-1.22-2.95-1.92-2.95-.77-5-1.6-5-4.55h0c0-2.69,2.18-4.55,5.19-4.55,2.18,0,3.98.71,5.51,1.92l-1.67,2.5c-1.35-.9-2.63-1.47-3.85-1.47s-1.92.58-1.92,1.22h0c0,1.03.71,1.22,3.14,1.92,3.08.77,4.75,1.92,4.75,4.42h0c0,2.95-2.24,4.62-5.45,4.62-2.24.06-4.49-.71-6.28-2.31ZM221.7,84.98h3.53l3.08,10.07,3.27-10.07h2.82l3.27,10.07,3.08-10.07h3.4l-5.07,14.94h-2.63l-3.4-9.75-3.4,9.75h-2.82l-5.13-14.94ZM246.83,84.98h3.27v14.81h-3.27v-14.81ZM252.79,97.61l1.92-2.24c1.35,1.15,2.69,1.8,4.42,1.8,1.35,0,2.18-.58,2.18-1.35h0c0-.77-.58-1.22-2.95-1.92-2.95-.77-5-1.6-5-4.55h0c0-2.69,2.18-4.55,5.19-4.55,2.18,0,3.98.71,5.51,1.92l-1.67,2.5c-1.35-.9-2.63-1.47-3.85-1.47s-1.92.58-1.92,1.22h0c0,1.03.71,1.22,3.14,1.92,3.08.77,4.75,1.92,4.75,4.42h0c0,2.95-2.24,4.62-5.45,4.62-2.18.06-4.49-.71-6.28-2.31ZM266.13,97.61l1.92-2.24c1.35,1.15,2.69,1.8,4.42,1.8,1.35,0,2.18-.58,2.18-1.35h0c0-.77-.58-1.22-2.95-1.92-2.95-.77-5-1.6-5-4.55h0c0-2.69,2.18-4.55,5.19-4.55,2.18,0,3.98.71,5.51,1.92l-1.67,2.5c-1.35-.9-2.63-1.47-3.85-1.47s-1.92.58-1.92,1.22h0c0,1.03.71,1.22,3.14,1.92,3.08.77,4.75,1.92,4.75,4.42h0c0,2.95-2.24,4.62-5.45,4.62-2.18.06-4.49-.71-6.28-2.31ZM287.16,84.98h6.09c3.53,0,5.64,2.18,5.64,5.07h0c0,3.4-2.69,5.19-5.96,5.19h-2.5v4.42h-3.27v-14.68ZM293.06,92.41c1.6,0,2.63-1.03,2.63-2.24h0c0-1.47-1.03-2.24-2.63-2.24h-2.5v4.55h2.5v-.06ZM300.63,92.41h0c0-4.3,3.27-7.69,7.89-7.69s7.89,3.4,7.89,7.69h0c0,4.17-3.27,7.69-7.89,7.69s-7.89-3.53-7.89-7.69ZM313.07,92.41h0c0-2.63-1.92-4.75-4.55-4.75s-4.42,2.05-4.42,4.62h0c0,2.63,1.92,4.62,4.55,4.62,2.63.13,4.42-1.99,4.42-4.49ZM318.26,97.61l1.92-2.24c1.35,1.15,2.69,1.8,4.42,1.8,1.35,0,2.18-.58,2.18-1.35h0c0-.77-.58-1.22-2.95-1.92-2.95-.77-5-1.6-5-4.55h0c0-2.69,2.18-4.55,5.19-4.55,2.18,0,3.98.71,5.51,1.92l-1.67,2.5c-1.35-.9-2.63-1.47-3.85-1.47s-1.92.58-1.92,1.22h0c0,1.03.71,1.22,3.14,1.92,3.08.77,4.75,1.92,4.75,4.42h0c0,2.95-2.24,4.62-5.45,4.62-2.18.06-4.55-.71-6.28-2.31ZM336.03,87.86h-4.55v-3.01h12.31v3.08h-4.55v11.86h-3.27v-11.93h.06ZM83.51,60.29l6.99-8.4c4.42,3.53,9.36,5.45,14.68,5.45,3.4,0,5.19-1.15,5.19-3.08v-.13c0-1.92-1.47-2.95-7.57-4.3-9.62-2.18-17.06-4.87-17.06-14.24v-.13c0-8.4,6.67-14.49,17.51-14.49,7.69,0,13.66,2.05,18.53,5.96l-6.22,8.85c-4.17-2.95-8.59-4.42-12.7-4.42-3.08,0-4.55,1.22-4.55,2.95v.13c0,2.05,1.6,2.95,7.82,4.42,10.39,2.24,16.86,5.64,16.86,14.04v.13c0,9.3-7.25,14.68-18.21,14.68-8.21,0-15.77-2.44-21.29-7.44ZM130.58,21.82h36.29v10.64h-23.98v6.8h21.74v9.81h-21.74v7.12h24.17v10.64h-36.61V21.82h.13ZM176.1,21.82h11.67l18.66,23.85v-23.85h12.44v45.14h-10.96l-19.37-24.75v24.75h-12.44V21.82ZM228.94,21.82h17.44c16.16,0,25.46,9.3,25.46,22.25v.13c0,13.02-9.49,22.7-25.78,22.7h-17.18V21.75h.06v.06ZM246.57,55.86c7.44,0,12.44-4.17,12.44-11.41v-.13c0-7.25-5-11.41-12.44-11.41h-5.07v22.96h5.07ZM279.02,21.82h12.57v45.14h-12.57V21.82h0ZM57.35,21.05c-12.7,0-20.9,6.35-20.9,20.71v25.2h12.57v-12.12h16.48v12.12h12.57v-25.46c0-13.98-8.02-20.46-20.71-20.46ZM49.01,45.03v-3.59c0-6.22,3.27-9.17,8.27-9.17s8.27,3.08,8.27,9.49v3.27h-16.54ZM323.14,21.05c-12.7,0-20.9,6.35-20.9,20.71v25.2h12.57v-12.12h16.48v12.12h12.57v-25.46c-.13-13.98-8.02-20.46-20.71-20.46ZM314.8,45.03v-3.59c0-6.22,3.27-9.17,8.27-9.17s8.27,3.08,8.27,9.49v3.27h-16.54Z"/>
</svg>