<?xml version="1.0" encoding="utf-8"?>
<!-- Generator: Adobe Illustrator 28.3.0, SVG Export Plug-In . SVG Version: 6.00 Build 0)  -->
<svg version="1.1" id="Camada_1" xmlns="http://www.w3.org/2000/svg" xmlns:xlink="http://www.w3.org/1999/xlink" x="0px" y="0px"
	 viewBox="0 0 380.3 121.1" style="enable-background:new 0 0 380.3 121.1;" xml:space="preserve">
<style type="text/css">
	.st0{fill:#FFFFFF;}
	.st1{fill-rule:evenodd;clip-rule:evenodd;fill:url(#path11_00000183936051467441017440000002327645296163229349_);}
	.st2{fill-rule:evenodd;clip-rule:evenodd;fill:url(#path18_00000031176361025604289270000000851635448624933549_);}
	.st3{fill-rule:evenodd;clip-rule:evenodd;fill:url(#path27_00000059285039872678171890000006580721247831795899_);}
	.st4{fill-rule:evenodd;clip-rule:evenodd;fill:url(#path34_00000054226328161296901750000013217765221316416147_);}
	.st5{fill:#0BBBEF;}
	.st6{fill:#FFD500;}
	.st7{fill:#06416A;}
</style>
<rect class="st0" width="380.3" height="121.1"/>
<g>
	
		<linearGradient id="path11_00000062183273071784671710000003281274260458213771_" gradientUnits="userSpaceOnUse" x1="120.5884" y1="-360.0405" x2="89.5336" y2="-335.7781" gradientTransform="matrix(1.5428 0 0 1.5428 -121.0218 602.3664)">
		<stop  offset="0" style="stop-color:#FFDD00"/>
		<stop  offset="0.9" style="stop-color:#D49F00"/>
		<stop  offset="1" style="stop-color:#FFDD00"/>
	</linearGradient>
	
		<path id="path11" style="fill-rule:evenodd;clip-rule:evenodd;fill:url(#path11_00000062183273071784671710000003281274260458213771_);" d="
		M34.8,97.6h-3.3c-2.6,0-5-1.2-6.5-3.2L9.6,74.6C9.2,74.1,9,73.6,9,72.9c0-0.7,0.3-1.2,0.6-1.7l15.5-19.9c1.6-2,3.8-3.2,6.5-3.2H66
		L46.4,72.6l-14.3,18L34.8,97.6z"/>
	
		<linearGradient id="path18_00000036230297842032352260000015754236499494910101_" gradientUnits="userSpaceOnUse" x1="121.1834" y1="-335.2708" x2="98.6144" y2="-335.2708" gradientTransform="matrix(1.5428 0 0 1.5428 -121.0218 602.3664)">
		<stop  offset="0" style="stop-color:#D49F00"/>
		<stop  offset="1" style="stop-color:#AB5808"/>
	</linearGradient>
	
		<path id="path18" style="fill-rule:evenodd;clip-rule:evenodd;fill:url(#path18_00000036230297842032352260000015754236499494910101_);" d="
		M46.7,72.9l-0.1-0.3l-14.3,18c-0.6,0.7-1.1,1.7-1.1,3.3s1.6,3.7,4.6,3.7h30.2L46.7,72.9z"/>
	
		<linearGradient id="path27_00000033343349964797173460000005194578452292169138_" gradientUnits="userSpaceOnUse" x1="113.7575" y1="-342.4371" x2="144.8167" y2="-366.6158" gradientTransform="matrix(1.5428 0 0 1.5428 -121.0218 602.3664)">
		<stop  offset="0" style="stop-color:#00537E"/>
		<stop  offset="0.9" style="stop-color:#18AAE2"/>
		<stop  offset="1" style="stop-color:#107BC0"/>
	</linearGradient>
	
		<path id="path27" style="fill-rule:evenodd;clip-rule:evenodd;fill:url(#path27_00000033343349964797173460000005194578452292169138_);" d="
		M87.4,30.4l-2.6-7H88c2.6,0,5,1.2,6.5,3.2l15.5,19.9c0.3,0.5,0.6,1.1,0.6,1.7s-0.3,1.2-0.6,1.7L94.5,69.7c-1.6,2-3.8,3.2-6.5,3.2
		H53.6l19.5-24.5C73.1,48.4,87.4,30.4,87.4,30.4z"/>
	
		<linearGradient id="path34_00000064345818071663752180000005615791957891798668_" gradientUnits="userSpaceOnUse" x1="132.6886" y1="-377.4706" x2="119.4983" y2="-367.1653" gradientTransform="matrix(1.5428 0 0 1.5428 -121.0218 602.3664)">
		<stop  offset="0" style="stop-color:#002542"/>
		<stop  offset="1" style="stop-color:#004169"/>
	</linearGradient>
	
		<path id="path34" style="fill-rule:evenodd;clip-rule:evenodd;fill:url(#path34_00000064345818071663752180000005615791957891798668_);" d="
		M72.9,48.2l0.1,0.3l14.2-18c0.6-0.7,1.1-1.7,1.1-3.3s-1.6-3.7-4.6-3.7H53.5C53.5,23.4,72.9,48.2,72.9,48.2z"/>
	<path id="path36" class="st5" d="M88.2,30.1c0.6-0.7,0.9-1.6,0.9-2.5c0-2.2-1.9-4.1-4.2-4.1h-1.1c2.3,0,4.1,1.9,4.1,4.2
		c0,1-0.3,1.9-0.9,2.5L72.9,48.2L53.6,72.8C53.6,72.8,88.2,30.1,88.2,30.1z"/>
	<path id="path38" class="st6" d="M31.4,90.9c-0.6,0.7-0.9,1.6-0.9,2.5c0,2.3,1.9,4.2,4.2,4.2h1.1c-2.3,0-4.2-1.9-4.2-4.2
		c0-1,0.3-1.9,0.9-2.5l14.2-18.1l19.3-24.6L31.4,90.9z"/>
	<path id="path40" class="st7" d="M239.4,58.2c-2,0-3.5,0.3-5.1,0.7c-2.6,0.8-4.6,2.2-6,4.2c-2.5,3.3-2.4,7.2-2.4,7.2v27.2h7.2
		c0.5,0,0.8-0.4,0.8-0.8V70.9c0-0.5,0.1-2.3,1.1-3.2c0.8-0.7,1.9-1.1,2.9-1.2c1.1-0.1,2.3-0.1,2.9,0h0.1c0.6,0,1-0.3,1.2-0.7
		l3.7-6.4C243.9,58.6,241.8,58.2,239.4,58.2"/>
	<path id="path42" class="st7" d="M218.1,58.2c-2,0-3.6,0.3-5.1,0.7c-2.6,0.8-4.6,2.2-6,4.2c-2.5,3.3-2.4,7.2-2.4,7.2v27.2h7.2
		c0.5,0,0.8-0.4,0.8-0.8V70.9c0-0.5,0.1-2.3,1.1-3.2c0.8-0.7,1.9-1.1,2.9-1.2c1.1-0.1,2.3-0.1,2.9,0h0.1c0.5,0,1-0.3,1.2-0.7
		l3.8-6.5C222.5,58.6,220.5,58.2,218.1,58.2"/>
	<path id="path44" class="st7" d="M154.8,87.4c-0.3-0.3-0.7-0.6-1.2-0.6c-0.3,0-0.6,0.1-0.7,0.3c-2.4,1.4-5.4,2.4-8.5,2.4
		c-9.1,0-16.5-7.4-16.5-16.6c0-9.1,7.4-16.5,16.5-16.5c3.1,0,6,0.8,8.5,2.4c0.3,0.1,0.5,0.3,0.8,0.3c0.5,0,0.9-0.3,1.2-0.6L159,53
		c-4.1-3-9.1-4.8-14.6-4.8c-13.7,0-24.7,11.1-24.7,24.7s11.1,24.7,24.7,24.7c5.4,0,10.5-1.8,14.6-4.8L154.8,87.4z"/>
	<path id="path46" class="st7" d="M264.7,65.5c5.4,0,9.9,3.5,11.6,8.3h-23C254.9,69,259.4,65.5,264.7,65.5 M264.7,57.6
		c-11,0-19.9,8.9-19.9,19.9c0,10.9,8.9,19.9,19.9,19.9h0.6c4.3,0,7.8-0.6,12.5-3.6l0.7-0.5c0,0-4.1-5.3-4.2-5.4
		c-0.3-0.3-0.7-0.6-1.1-0.6c-0.3,0-0.5,0.1-0.7,0.1c-1.1,0.6-4.2,2-7.7,2c-5.3,0-9.7-3.3-11.5-8h30.5c0.5,0,0.8-0.4,0.8-0.8l0.1-2.3
		v-0.9C284.7,66.6,275.8,57.6,264.7,57.6L264.7,57.6z"/>
	<path id="path48" class="st7" d="M290.2,97.6c-0.5,0-0.8-0.3-0.8-0.8v-37c0-0.4,0.3-0.8,0.8-0.8h6.4c0.5,0,0.8,0.4,0.8,0.8v37
		c0,0.5-0.4,0.8-0.8,0.8H290.2z"/>
	<path id="path50" class="st7" d="M180.4,65.3c-6.7,0-12,5.4-12,12s5.4,12,12,12s12-5.4,12-12S187.1,65.3,180.4,65.3 M180.4,97.6
		c-11.2,0-20.2-9-20.2-20.2s9-20.2,20.2-20.2c11.2,0,20.2,9,20.2,20.2C200.6,88.5,191.6,97.6,180.4,97.6z"/>
	<path id="path52" class="st7" d="M321.5,65.7c-6.6,0-12,5.4-12,12s5.4,11.9,12,11.9c6.6,0,12-5.4,12-11.9
		C333.5,71,328.1,65.7,321.5,65.7 M321.5,97.5c-11.1,0-20-8.9-20-20s8.9-20,20-20c11.1,0,20,8.9,20,20S332.6,97.5,321.5,97.5z"/>
	<path id="path54" class="st7" d="M364.2,74.5c-1.4-0.7-3.2-1.1-5.1-1.6c-2.9-0.7-5.5-0.9-6.5-2.4c-0.9-1.4-0.4-3.1,0.8-4
		c2.9-2,6.7-1.1,8.8-0.1c0.4,0.1,2,1.1,2,1.1c0.3,0.1,0.5,0.3,0.7,0.3c0.5,0,0.9-0.3,1.2-0.7l4.1-5.2l-0.7-0.6c-0.4-0.3-1-0.7-1.6-1
		c-1.2-0.7-4.9-2.8-10.2-2.8h-0.5c-11.6,0.3-13.3,8.5-13.3,11.4c0,4.4,2.3,7.6,5.7,9.5c2.8,1.6,7.9,2.4,10.5,3.3
		c1.4,0.4,2.4,1.4,2.8,2.3c0.1,0.4,0.3,0.8,0.3,1.3c0.1,1.6-0.7,3.3-3,4c-2.5,0.7-6.4,0.4-10-2.4c-0.1-0.1-0.5-0.4-0.7-0.5
		c-0.1-0.1-0.3-0.1-0.6-0.1c-0.5,0-0.9,0.3-1.2,0.7c-0.1,0.1-4,5.1-4,5.1s1.4,1.1,1.9,1.4c2.3,1.7,6.3,4,11.6,4h0.1
		c11.2,0,13.8-8,13.8-12.4C371.3,80.8,368.6,76.5,364.2,74.5"/>
</g>
</svg>
