<?xml version="1.0" encoding="UTF-8"?>
<svg id="Camada_1" data-name="Camada 1" xmlns="http://www.w3.org/2000/svg" viewBox="0 0 108.28 108.28">
  <defs>
    <style>
      .cls-1 {
        fill: #1a365e;
      }

      .cls-1, .cls-2 {
        stroke-width: 0px;
      }

      .cls-2 {
        fill: #fff;
      }
    </style>
  </defs>
  <circle class="cls-2" cx="54.14" cy="54.14" r="54.14"/>
  <path class="cls-1" d="M84.96,38.66c-.74-2.77-2.92-4.95-5.69-5.69-5.02-1.34-25.13-1.34-25.13-1.34,0,0-20.11,0-25.13,1.34-2.77.74-4.95,2.92-5.69,5.69-1.34,5.02-1.34,15.48-1.34,15.48,0,0,0,10.47,1.34,15.48.74,2.77,2.92,4.95,5.69,5.69,5.02,1.34,25.13,1.34,25.13,1.34,0,0,20.11,0,25.13-1.34,2.77-.74,4.95-2.92,5.69-5.69,1.34-5.02,1.34-15.48,1.34-15.48,0,0,0-10.47-1.34-15.48ZM47.71,63.79v-19.3l16.71,9.65-16.71,9.65Z"/>
</svg>