<?xml version="1.0" encoding="UTF-8"?>
<svg id="Camada_1" data-name="Camada 1" xmlns="http://www.w3.org/2000/svg" viewBox="0 0 380.29 121.09">
  <defs>
    <style>
      .cls-1 {
        fill: #2fb6ea;
        fill-rule: evenodd;
      }

      .cls-1, .cls-2 {
        stroke-width: 0px;
      }

      .cls-2 {
        fill: #fff;
      }
    </style>
  </defs>
  <rect class="cls-2" width="380.29" height="121.09"/>
  <g>
    <path class="cls-1" d="M99.76,31.33c8.36,3.46,16.71,6.93,25.07,10.39,2.33.88,3.69,3.39,3.29,5.82-1.04,7.45-2.07,14.9-3.11,22.34-.48,3.08,1.15,6.09,4.2,6.92,1.44.38,3,.27,4.39-.27,3.02-1.18,4.84-3.78,5.23-6.94.43-3.02.85-6.05,1.28-9.07.05-.3.07-.59.13-.89.51-1.88,2.22-3.37,4.15-3.61.33-.05.67-.03,1-.03,1.72,0,3.45,0,5.17,0,.84-.01,1.7.25,2.36.77.8.61,1.29,1.59,1.34,2.59.04.35-.05.69-.09,1.03-.45,3.3-.9,6.61-1.35,9.91-.51,4.31,2.94,7.36,7.22,6.63,4.34-.73,6.17-4.14,6.75-8.08.71-5.12,1.41-10.23,2.11-15.35.05-.38.09-.76.2-1.13.56-2,2.49-3.54,4.57-3.61,1.92,0,3.83,0,5.75,0,1.2,0,2.59.4,3.35,1.38.34.43.5,1,.41,1.54-.77,5.58-1.54,11.16-2.31,16.74-.15,1.06-.28,2.12-.49,3.16-1.86,9.23-9.9,17.24-19.17,19.05-6.45,1.27-12.92-.13-17.63-4.94-4.03,3.28-8.66,5.19-13.86,5.35-11.1.34-19.56-7.82-18.95-18.99.04-.81.14-1.61.25-2.4.78-5.58,1.56-11.17,2.33-16.75-5.1-2.1-10.19-4.2-15.29-6.3-.44-.19-.89-.34-1.3-.59-1.91-1.12-2.98-3.53-2.47-5.69.48-1.92.98-3.84,1.46-5.76.42-1.67,1.98-4.09,4-3.23h0Z"/>
    <path class="cls-1" d="M251.52,28.55c1.84,0,3.69,0,5.53,0,.81.03,1.63.22,2.32.68.7.47,1.14,1.16,1,2.02-1.06,7.32-2.12,14.63-3.17,21.95,4.07-3.48,8.34-4.87,13.62-4.93,3.51-.04,6.85.73,9.69,2.88,5.09,3.87,6.25,9.62,5.34,15.73-1.01,6.55-2.02,13.1-3.03,19.65-.08.49-.12,1-.29,1.47-.6,1.71-2.28,3-4.1,3.06-1.71,0-3.42,0-5.13,0-1.54.03-3.98-.82-3.58-2.76.81-5.63,1.63-11.26,2.44-16.89.27-1.95.59-3.77.5-5.76-.18-3.46-1.65-6-5.31-6.46-3.3-.4-6.32.73-8.79,2.9-2.53,2.24-3.45,5.2-3.9,8.42-.81,5.53-1.62,11.06-2.43,16.59-.31,2.25-2.27,4.08-4.58,4.01-1.65,0-3.29,0-4.94,0-1.99,0-3.85-.9-3.48-3.15,2.72-18.55,5.43-37.1,8.15-55.66.32-2,2.14-3.63,4.15-3.76h0Z"/>
    <path class="cls-1" d="M196.45,30.48c4.7-.41,7.7,3.12,6.68,7.69-.87,3.92-4.7,6.73-8.7,6.38-3.31-.28-5.59-2.97-5.39-6.28.23-3.98,3.43-7.44,7.42-7.8h0Z"/>
    <path class="cls-1" d="M236.84,50.81c.67.45.98.72,1.41,1.4.82,1.36.73,3.23-.3,4.45-.74.94-1.47,1.87-2.21,2.81-.67.85-1.47,1.64-2.64,1.43-1.08-.18-2.61-1.38-3.74-1.88-2.81-1.28-9.59-2.59-12.03.05-.51.55-.72,1.35-.58,2.08.36,1.77,4.72,2.75,6.09,3.15,1.74.49,3.49.97,5.21,1.52,1.93.62,5.01,2.03,6.41,3.46,1.86,1.86,2.39,4.4,2.3,6.95-.22,6.79-4.31,11.93-10.44,14.56-5.11,2.2-11,2.17-16.33.84-1.59-.39-3.15-.91-4.64-1.58-1.27-.57-5.02-2.6-5.85-3.68-.46-.55-.58-1.36-.3-2.03.12-.31.33-.56.53-.82,1.11-1.46,2.22-2.93,3.33-4.39.73-.92,2.12-1.23,3.17-.69,1.24.67,2.53,1.47,3.79,2.08,2.35,1.18,4.96,1.87,7.59,1.99,2.13.1,5.59-.02,6.64-2.3.26-.57.35-1.25.08-1.83-1.03-2.23-6.22-3.34-8.43-4.03-2.68-.83-5.85-2.06-8.08-3.85-2.77-2.19-3.54-5.28-3.16-8.69.75-6.71,6.09-11.42,12.29-13.33,6.57-2.06,14.08-1.5,19.89,2.31h0Z"/>
    <path class="cls-1" d="M191.63,48.77c.46-.05.91-.02,1.37-.03h3.55c.45,0,.91,0,1.36.07.98.16,2.1.66,2.49,1.64.12.3.15.62.1.94-1.67,11.87-3.34,23.73-5.01,35.6-.04.3-.08.6-.17.88-.53,1.76-2.22,3.11-4.06,3.18-1.67,0-3.34,0-5.02,0-.82.02-1.65-.14-2.37-.54-.73-.41-1.31-1.14-1.19-2.02,1.66-11.77,3.31-23.54,4.96-35.31.07-.42.1-.85.23-1.26.5-1.66,2.03-2.95,3.76-3.15h0Z"/>
  </g>
</svg>