<?xml version="1.0" encoding="UTF-8"?>
<svg id="Camada_1" data-name="Camada 1" xmlns="http://www.w3.org/2000/svg" viewBox="0 0 45.86 46.23">
  <defs>
    <style>
      .cls-1 {
        fill: #fff;
        stroke-width: 0px;
      }
    </style>
  </defs>
  <path class="cls-1" d="M32.54,15.85c-.22-.58-.49-.99-.92-1.42s-.84-.7-1.42-.92c-.43-.17-1.09-.37-2.29-.42-1.3-.06-1.69-.07-4.98-.07s-3.68.01-4.98.07c-1.2.05-1.85.26-2.29.42-.58.22-.99.49-1.42.92-.43.43-.7.84-.92,1.42-.17.43-.37,1.09-.42,2.29-.06,1.3-.07,1.69-.07,4.98s.01,3.68.07,4.98c.05,1.2.26,1.85.42,2.29.22.58.49.99.92,1.42.43.43.84.7,1.42.92.43.17,1.09.37,2.29.42,1.3.06,1.69.07,4.98.07s3.68-.01,4.98-.07c1.2-.05,1.85-.26,2.29-.42.58-.22.99-.49,1.42-.92s.7-.84.92-1.42c.17-.43.37-1.09.42-2.29.06-1.3.07-1.69.07-4.98s-.01-3.68-.07-4.98c-.05-1.2-.26-1.85-.42-2.29ZM22.93,29.45c-3.49,0-6.33-2.83-6.33-6.33s2.83-6.33,6.33-6.33,6.33,2.83,6.33,6.33-2.83,6.33-6.33,6.33ZM29.51,18.02c-.82,0-1.48-.66-1.48-1.48s.66-1.48,1.48-1.48,1.48.66,1.48,1.48-.66,1.48-1.48,1.48Z"/>
  <path class="cls-1" d="M22.93,0C10.27,0,0,10.35,0,23.12s10.27,23.12,22.93,23.12,22.93-10.35,22.93-23.12S35.6,0,22.93,0ZM35.18,28.2c-.06,1.31-.27,2.21-.57,2.99-.31.81-.74,1.5-1.42,2.18s-1.37,1.11-2.18,1.42c-.78.3-1.68.51-2.99.57-1.31.06-1.73.07-5.08.07s-3.77-.01-5.08-.07c-1.31-.06-2.21-.27-2.99-.57-.81-.31-1.5-.74-2.18-1.42-.69-.69-1.11-1.37-1.42-2.18-.3-.78-.51-1.68-.57-2.99-.06-1.31-.07-1.73-.07-5.08s.01-3.77.07-5.08c.06-1.31.27-2.21.57-2.99.31-.81.74-1.5,1.42-2.18.69-.69,1.37-1.11,2.18-1.42.78-.3,1.68-.51,2.99-.57,1.31-.06,1.73-.07,5.08-.07s3.77.01,5.08.07c1.31.06,2.21.27,2.99.57.81.31,1.5.74,2.18,1.42s1.11,1.37,1.42,2.18c.3.78.51,1.68.57,2.99.06,1.31.07,1.73.07,5.08s-.01,3.77-.07,5.08Z"/>
  <path class="cls-1" d="M22.93,19.01c-2.27,0-4.11,1.84-4.11,4.11s1.84,4.11,4.11,4.11,4.11-1.84,4.11-4.11-1.84-4.11-4.11-4.11Z"/>
</svg>