<svg xmlns="http://www.w3.org/2000/svg" xmlns:xlink="http://www.w3.org/1999/xlink" version="1.1" width="256" height="256" viewBox="0 0 256 256" xml:space="preserve">

<defs>
</defs>
<g style="stroke: none; stroke-width: 0; stroke-dasharray: none; stroke-linecap: butt; stroke-linejoin: miter; stroke-miterlimit: 10; fill: white; fill-rule: nonzero; opacity: 1;" transform="translate(1.4065934065934016 1.4065934065934016) scale(2.81 2.81)" >
	<path d="M 72.955 90 h -55.91 c -1.906 0 -3.457 -1.551 -3.457 -3.457 V 3.457 C 13.588 1.551 15.139 0 17.045 0 h 55.91 c 1.905 0 3.456 1.551 3.456 3.457 v 83.086 C 76.411 88.449 74.86 90 72.955 90 z M 17.045 2 c -0.803 0 -1.457 0.653 -1.457 1.457 v 83.086 c 0 0.804 0.653 1.457 1.457 1.457 h 55.91 c 0.803 0 1.456 -0.653 1.456 -1.457 V 3.457 C 74.411 2.653 73.758 2 72.955 2 H 17.045 z" style="stroke: none; stroke-width: 1; stroke-dasharray: none; stroke-linecap: butt; stroke-linejoin: miter; stroke-miterlimit: 10; fill: white; fill-rule: nonzero; opacity: 1;" transform=" matrix(1 0 0 1 0 0) " stroke-linecap="round" />
	<path d="M 64.161 33.042 H 25.839 c -1.906 0 -3.457 -1.551 -3.457 -3.457 V 12.25 c 0 -1.906 1.551 -3.457 3.457 -3.457 h 38.322 c 1.906 0 3.457 1.551 3.457 3.457 v 17.335 C 67.618 31.492 66.067 33.042 64.161 33.042 z M 25.839 10.793 c -0.803 0 -1.457 0.654 -1.457 1.457 v 17.335 c 0 0.803 0.654 1.457 1.457 1.457 h 38.322 c 0.804 0 1.457 -0.654 1.457 -1.457 V 12.25 c 0 -0.803 -0.653 -1.457 -1.457 -1.457 H 25.839 z" style="stroke: none; stroke-width: 1; stroke-dasharray: none; stroke-linecap: butt; stroke-linejoin: miter; stroke-miterlimit: 10; fill: white; fill-rule: nonzero; opacity: 1;" transform=" matrix(1 0 0 1 0 0) " stroke-linecap="round" />
	<path d="M 30.602 81.206 h -4.763 c -1.906 0 -3.457 -1.551 -3.457 -3.456 v -3.713 c 0 -1.906 1.551 -3.457 3.457 -3.457 h 4.763 c 1.906 0 3.457 1.551 3.457 3.457 v 3.713 C 34.059 79.655 32.508 81.206 30.602 81.206 z M 25.839 72.58 c -0.803 0 -1.457 0.653 -1.457 1.457 v 3.713 c 0 0.803 0.654 1.456 1.457 1.456 h 4.763 c 0.803 0 1.457 -0.653 1.457 -1.456 v -3.713 c 0 -0.804 -0.653 -1.457 -1.457 -1.457 H 25.839 z" style="stroke: none; stroke-width: 1; stroke-dasharray: none; stroke-linecap: butt; stroke-linejoin: miter; stroke-miterlimit: 10; fill: white; fill-rule: nonzero; opacity: 1;" transform=" matrix(1 0 0 1 0 0) " stroke-linecap="round" />
	<path d="M 64.161 81.206 h -4.764 c -1.905 0 -3.456 -1.551 -3.456 -3.456 V 57.998 c 0 -1.905 1.551 -3.456 3.456 -3.456 h 4.764 c 1.906 0 3.457 1.551 3.457 3.456 V 77.75 C 67.618 79.655 66.067 81.206 64.161 81.206 z M 59.397 56.542 c -0.803 0 -1.456 0.653 -1.456 1.456 V 77.75 c 0 0.803 0.653 1.456 1.456 1.456 h 4.764 c 0.804 0 1.457 -0.653 1.457 -1.456 V 57.998 c 0 -0.803 -0.653 -1.456 -1.457 -1.456 H 59.397 z" style="stroke: none; stroke-width: 1; stroke-dasharray: none; stroke-linecap: butt; stroke-linejoin: miter; stroke-miterlimit: 10; fill: white; fill-rule: nonzero; opacity: 1;" transform=" matrix(1 0 0 1 0 0) " stroke-linecap="round" />
	<path d="M 47.382 81.206 h -4.764 c -1.906 0 -3.457 -1.551 -3.457 -3.456 v -3.713 c 0 -1.906 1.551 -3.457 3.457 -3.457 h 4.764 c 1.905 0 3.456 1.551 3.456 3.457 v 3.713 C 50.838 79.655 49.287 81.206 47.382 81.206 z M 42.618 72.58 c -0.803 0 -1.457 0.653 -1.457 1.457 v 3.713 c 0 0.803 0.653 1.456 1.457 1.456 h 4.764 c 0.803 0 1.456 -0.653 1.456 -1.456 v -3.713 c 0 -0.804 -0.653 -1.457 -1.456 -1.457 H 42.618 z" style="stroke: none; stroke-width: 1; stroke-dasharray: none; stroke-linecap: butt; stroke-linejoin: miter; stroke-miterlimit: 10; fill: white; fill-rule: nonzero; opacity: 1;" transform=" matrix(1 0 0 1 0 0) " stroke-linecap="round" />
	<path d="M 30.602 65.168 h -4.763 c -1.906 0 -3.457 -1.551 -3.457 -3.457 v -3.713 c 0 -1.905 1.551 -3.456 3.457 -3.456 h 4.763 c 1.906 0 3.457 1.551 3.457 3.456 v 3.713 C 34.059 63.617 32.508 65.168 30.602 65.168 z M 25.839 56.542 c -0.803 0 -1.457 0.653 -1.457 1.456 v 3.713 c 0 0.804 0.654 1.457 1.457 1.457 h 4.763 c 0.803 0 1.457 -0.653 1.457 -1.457 v -3.713 c 0 -0.803 -0.653 -1.456 -1.457 -1.456 H 25.839 z" style="stroke: none; stroke-width: 1; stroke-dasharray: none; stroke-linecap: butt; stroke-linejoin: miter; stroke-miterlimit: 10; fill: white; fill-rule: nonzero; opacity: 1;" transform=" matrix(1 0 0 1 0 0) " stroke-linecap="round" />
	<path d="M 47.382 65.168 h -4.764 c -1.906 0 -3.457 -1.551 -3.457 -3.457 v -3.713 c 0 -1.905 1.551 -3.456 3.457 -3.456 h 4.764 c 1.905 0 3.456 1.551 3.456 3.456 v 3.713 C 50.838 63.617 49.287 65.168 47.382 65.168 z M 42.618 56.542 c -0.803 0 -1.457 0.653 -1.457 1.456 v 3.713 c 0 0.804 0.653 1.457 1.457 1.457 h 4.764 c 0.803 0 1.456 -0.653 1.456 -1.457 v -3.713 c 0 -0.803 -0.653 -1.456 -1.456 -1.456 H 42.618 z" style="stroke: none; stroke-width: 1; stroke-dasharray: none; stroke-linecap: butt; stroke-linejoin: miter; stroke-miterlimit: 10; fill: white; fill-rule: nonzero; opacity: 1;" transform=" matrix(1 0 0 1 0 0) " stroke-linecap="round" />
	<path d="M 30.602 49.13 h -4.763 c -1.906 0 -3.457 -1.551 -3.457 -3.457 V 41.96 c 0 -1.906 1.551 -3.457 3.457 -3.457 h 4.763 c 1.906 0 3.457 1.551 3.457 3.457 v 3.713 C 34.059 47.579 32.508 49.13 30.602 49.13 z M 25.839 40.503 c -0.803 0 -1.457 0.654 -1.457 1.457 v 3.713 c 0 0.803 0.654 1.457 1.457 1.457 h 4.763 c 0.803 0 1.457 -0.653 1.457 -1.457 V 41.96 c 0 -0.803 -0.653 -1.457 -1.457 -1.457 H 25.839 z" style="stroke: none; stroke-width: 1; stroke-dasharray: none; stroke-linecap: butt; stroke-linejoin: miter; stroke-miterlimit: 10; fill: white; fill-rule: nonzero; opacity: 1;" transform=" matrix(1 0 0 1 0 0) " stroke-linecap="round" />
	<path d="M 64.161 49.13 h -4.764 c -1.905 0 -3.456 -1.551 -3.456 -3.457 V 41.96 c 0 -1.906 1.551 -3.457 3.456 -3.457 h 4.764 c 1.906 0 3.457 1.551 3.457 3.457 v 3.713 C 67.618 47.579 66.067 49.13 64.161 49.13 z M 59.397 40.503 c -0.803 0 -1.456 0.654 -1.456 1.457 v 3.713 c 0 0.803 0.653 1.457 1.456 1.457 h 4.764 c 0.804 0 1.457 -0.653 1.457 -1.457 V 41.96 c 0 -0.803 -0.653 -1.457 -1.457 -1.457 H 59.397 z" style="stroke: none; stroke-width: 1; stroke-dasharray: none; stroke-linecap: butt; stroke-linejoin: miter; stroke-miterlimit: 10; fill: white; fill-rule: nonzero; opacity: 1;" transform=" matrix(1 0 0 1 0 0) " stroke-linecap="round" />
	<path d="M 47.382 49.13 h -4.764 c -1.906 0 -3.457 -1.551 -3.457 -3.457 V 41.96 c 0 -1.906 1.551 -3.457 3.457 -3.457 h 4.764 c 1.905 0 3.456 1.551 3.456 3.457 v 3.713 C 50.838 47.579 49.287 49.13 47.382 49.13 z M 42.618 40.503 c -0.803 0 -1.457 0.654 -1.457 1.457 v 3.713 c 0 0.803 0.653 1.457 1.457 1.457 h 4.764 c 0.803 0 1.456 -0.653 1.456 -1.457 V 41.96 c 0 -0.803 -0.653 -1.457 -1.456 -1.457 H 42.618 z" style="stroke: none; stroke-width: 1; stroke-dasharray: none; stroke-linecap: butt; stroke-linejoin: miter; stroke-miterlimit: 10; fill: white; fill-rule: nonzero; opacity: 1;" transform=" matrix(1 0 0 1 0 0) " stroke-linecap="round" />
	<circle cx="40.816" cy="17.046" r="1.816" style="stroke: none; stroke-width: 1; stroke-dasharray: none; stroke-linecap: butt; stroke-linejoin: miter; stroke-miterlimit: 10; fill: white; fill-rule: nonzero; opacity: 1;" transform="  matrix(1 0 0 1 0 0) "/>
	<circle cx="49.186" cy="25.416" r="1.816" style="stroke: none; stroke-width: 1; stroke-dasharray: none; stroke-linecap: butt; stroke-linejoin: miter; stroke-miterlimit: 10; fill: white; fill-rule: nonzero; opacity: 1;" transform="  matrix(1 0 0 1 0 0) "/>
	<path d="M 40 27.23 c -0.256 0 -0.512 -0.098 -0.707 -0.293 c -0.391 -0.391 -0.391 -1.023 0 -1.414 l 10 -10 c 0.391 -0.391 1.023 -0.391 1.414 0 s 0.391 1.023 0 1.414 l -10 10 C 40.512 27.132 40.256 27.23 40 27.23 z" style="stroke: none; stroke-width: 1; stroke-dasharray: none; stroke-linecap: butt; stroke-linejoin: miter; stroke-miterlimit: 10; fill: white; fill-rule: nonzero; opacity: 1;" transform=" matrix(1 0 0 1 0 0) " stroke-linecap="round" />
</g>
</svg>