<svg xmlns="http://www.w3.org/2000/svg" xmlns:xlink="http://www.w3.org/1999/xlink" version="1.1" width="256" height="256" viewBox="0 0 256 256" xml:space="preserve">

<defs>
</defs>
<g style="stroke: none; stroke-width: 0; stroke-dasharray: none; stroke-linecap: butt; stroke-linejoin: miter; stroke-miterlimit: 10; fill: white; fill-rule: nonzero; opacity: 1;" transform="translate(1.4065934065934016 1.4065934065934016) scale(2.81 2.81)" >
	<path d="M 33.166 3.307 C 14.849 3.307 0 18.156 0 36.474 c 0 8.177 2.973 15.651 7.88 21.433 l 25.287 29.782 l 25.287 -29.782 c 4.906 -5.782 7.88 -13.256 7.88 -21.433 C 66.333 18.156 51.484 3.307 33.166 3.307 z M 33.166 48.972 c -7.533 0 -13.64 -6.107 -13.64 -13.64 c 0 -7.533 6.107 -13.64 13.64 -13.64 s 13.64 6.107 13.64 13.64 C 46.806 42.865 40.7 48.972 33.166 48.972 z" style="stroke: none; stroke-width: 1; stroke-dasharray: none; stroke-linecap: butt; stroke-linejoin: miter; stroke-miterlimit: 10; fill: white; fill-rule: nonzero; opacity: 1;" transform=" matrix(1 0 0 1 0 0) " stroke-linecap="round" />
	<path d="M 65 2.847 c -4.732 0 -9.146 1.331 -12.919 3.615 c 4.357 2.643 8.081 6.222 10.901 10.455 c 0.654 -0.131 1.326 -0.212 2.018 -0.212 c 5.678 0 10.282 4.603 10.282 10.282 c 0 4.351 -2.703 8.07 -6.521 9.571 c -0.114 8.347 -3.188 15.97 -8.213 21.892 l -1.171 1.379 L 65 66.452 l 19.061 -22.449 C 87.759 39.644 90 34.011 90 27.847 C 90 14.04 78.807 2.847 65 2.847 z" style="stroke: none; stroke-width: 1; stroke-dasharray: none; stroke-linecap: butt; stroke-linejoin: miter; stroke-miterlimit: 10; fill: white; fill-rule: nonzero; opacity: 1;" transform=" matrix(1 0 0 1 0 0) " stroke-linecap="round" />
</g>
</svg>