<svg xmlns="http://www.w3.org/2000/svg" xmlns:xlink="http://www.w3.org/1999/xlink" version="1.1" width="256" height="256" viewBox="0 0 256 256" xml:space="preserve">

<defs>
</defs>
<g style="stroke: none; stroke-width: 0; stroke-dasharray: none; stroke-linecap: butt; stroke-linejoin: miter; stroke-miterlimit: 10; fill: white; fill-rule: nonzero; opacity: 1;" transform="translate(1.4065934065934016 1.4065934065934016) scale(2.81 2.81)" >
	<path d="M 82.636 32.113 l -9.77 -8.419 V 7 c 0 -0.552 -0.447 -1 -1 -1 H 59.398 c -0.553 0 -1 0.448 -1 1 v 4.226 L 45.653 0.243 c -0.375 -0.323 -0.931 -0.323 -1.306 0 L 7.363 32.113 c -0.22 0.19 -0.347 0.466 -0.347 0.757 V 89 c 0 0.553 0.448 1 1 1 h 21.504 h 6.752 h 35.069 h 10.642 c 0.553 0 1 -0.447 1 -1 V 32.87 C 82.983 32.579 82.856 32.303 82.636 32.113 z M 60.398 8 h 10.468 v 13.97 l -10.468 -9.021 V 8 z M 29.521 88 c -6.319 0 -11.46 -5.141 -11.46 -11.46 c 0 -10.011 8.074 -18.271 18.054 -18.539 c 0.324 0.181 0.656 0.352 0.997 0.508 c 0.008 0.004 0.016 0.008 0.025 0.012 c 0.332 0.151 0.67 0.292 1.017 0.417 c 0.701 0.253 1.433 0.381 2.175 0.381 c 0.709 0 1.406 -0.124 2.078 -0.355 c 0.032 -0.011 0.066 -0.015 0.099 -0.026 c 0.009 -0.003 0.017 -0.008 0.026 -0.011 c 0.7 -0.255 1.369 -0.567 2.008 -0.924 c 3.618 0.105 7.081 1.275 10.021 3.321 H 41.013 c -1.967 0 -3.568 1.601 -3.568 3.568 v 16.601 h -1.172 c -1.432 0 -2.598 1.165 -2.598 2.598 v 3.312 c 0 0.194 0.025 0.381 0.065 0.563 c 0.003 0.011 0.001 0.023 0.004 0.035 H 29.521 z M 35.599 25.184 c -0.135 -0.565 -0.505 -1.083 -1.152 -1.587 c 5.182 -1.326 11.013 -0.616 13.84 3.951 c 0.123 0.198 0.311 0.347 0.531 0.421 c 1.696 0.572 2.872 1.678 3.402 3.2 c 0.591 1.701 0.357 3.807 -0.648 6.092 c -0.479 -1.654 -1.3 -2.832 -2.476 -3.565 c -0.94 -0.586 -2.034 -0.82 -3.197 -0.82 c -2.29 0 -4.846 0.906 -7.018 1.815 c -3.029 1.159 -5.594 0.983 -7.885 0.627 c -0.58 -0.109 -1.132 0.033 -1.549 0.402 c -0.306 0.27 -0.515 0.634 -0.656 1.064 c -0.749 -1.819 -0.908 -3.443 -0.471 -4.85 c 0.693 -2.23 2.938 -4.111 6.674 -5.59 C 35.457 26.163 35.714 25.667 35.599 25.184 z M 30.581 40.235 c -0.116 -1.967 0.02 -2.679 0.143 -2.935 c 2.458 0.38 5.428 0.578 8.901 -0.752 c 2.637 -1.104 6.378 -2.426 8.413 -1.155 c 1.175 0.733 1.849 2.389 2.006 4.918 l -0.394 6.531 c -0.327 3.905 -2.571 7.364 -5.887 9.299 c -0.301 0.176 -0.605 0.335 -0.91 0.481 c -0.026 0.012 -0.051 0.026 -0.077 0.038 c -0.318 0.149 -0.636 0.283 -0.953 0.398 c -0.964 0.348 -2.03 0.348 -2.993 0 c -0.317 -0.115 -0.636 -0.249 -0.955 -0.399 c -0.024 -0.011 -0.047 -0.024 -0.071 -0.035 c -0.3 -0.143 -0.6 -0.301 -0.898 -0.474 c -3.324 -1.933 -5.573 -5.394 -5.899 -9.289 l -0.426 -6.625 C 30.581 40.235 30.581 40.235 30.581 40.235 z M 68.17 81.493 H 39.445 V 64.893 c 0 -0.865 0.703 -1.568 1.568 -1.568 H 57.4 h 9.201 c 0.865 0 1.568 0.703 1.568 1.568 V 81.493 z M 36.273 88 c -0.33 0 -0.598 -0.269 -0.598 -0.598 v -3.312 c 0 -0.329 0.268 -0.598 0.598 -0.598 h 2.172 H 69.17 h 2.172 c 0.329 0 0.598 0.269 0.598 0.598 v 3.312 c 0 0.329 -0.269 0.598 -0.598 0.598 H 36.273 z M 80.983 88 h -7.12 c 0.046 -0.193 0.076 -0.391 0.076 -0.598 v -3.312 c 0 -1.433 -1.165 -2.598 -2.598 -2.598 H 70.17 V 64.893 c 0 -1.968 -1.601 -3.568 -3.568 -3.568 h -8.81 c -3.03 -2.749 -6.777 -4.493 -10.778 -5.086 c 2.619 -2.337 4.327 -5.626 4.63 -9.253 l 0.386 -6.383 c 2.321 -3.676 3.067 -7.251 2.079 -10.091 c -0.692 -1.991 -2.217 -3.512 -4.313 -4.316 c -3.893 -5.877 -11.885 -6.167 -18.166 -3.806 c -0.378 0.142 -0.633 0.497 -0.648 0.9 c -0.014 0.403 0.215 0.776 0.582 0.944 c 0.673 0.309 1.13 0.573 1.44 0.787 c -3.585 1.647 -5.802 3.77 -6.594 6.322 c -0.83 2.673 -0.085 5.793 2.191 9.272 l 0.411 6.394 c 0.302 3.61 2.008 6.892 4.624 9.227 c -9.907 1.46 -17.576 10.042 -17.576 20.306 c 0 4.846 2.583 9.089 6.436 11.46 H 9.016 V 33.329 L 45 2.32 l 35.983 31.008 V 88 z" style="stroke: none; stroke-width: 1; stroke-dasharray: none; stroke-linecap: butt; stroke-linejoin: miter; stroke-miterlimit: 10; fill: white; fill-rule: nonzero; opacity: 1;" transform=" matrix(1 0 0 1 0 0) " stroke-linecap="round" />
	<path d="M 32.12 80.336 c -2.171 0 -3.938 -1.767 -3.938 -3.938 c 0 -1.804 0.702 -3.499 1.977 -4.773 c 0.391 -0.391 0.391 -1.023 0 -1.414 s -1.023 -0.391 -1.414 0 c -1.653 1.652 -2.563 3.85 -2.563 6.188 c 0 3.274 2.664 5.938 5.938 5.938 c 0.552 0 1 -0.447 1 -1 S 32.672 80.336 32.12 80.336 z" style="stroke: none; stroke-width: 1; stroke-dasharray: none; stroke-linecap: butt; stroke-linejoin: miter; stroke-miterlimit: 10; fill: white; fill-rule: nonzero; opacity: 1;" transform=" matrix(1 0 0 1 0 0) " stroke-linecap="round" />
	<path d="M 56.832 71.409 h -6.05 c -0.553 0 -1 0.447 -1 1 s 0.447 1 1 1 h 6.05 c 0.553 0 1 -0.447 1 -1 S 57.385 71.409 56.832 71.409 z" style="stroke: none; stroke-width: 1; stroke-dasharray: none; stroke-linecap: butt; stroke-linejoin: miter; stroke-miterlimit: 10; fill: white; fill-rule: nonzero; opacity: 1;" transform=" matrix(1 0 0 1 0 0) " stroke-linecap="round" />
	<path d="M 34.617 43.313 h 2.919 c 0.552 0 1 -0.448 1 -1 s -0.448 -1 -1 -1 h -2.919 c -0.552 0 -1 0.448 -1 1 S 34.064 43.313 34.617 43.313 z" style="stroke: none; stroke-width: 1; stroke-dasharray: none; stroke-linecap: butt; stroke-linejoin: miter; stroke-miterlimit: 10; fill: white; fill-rule: nonzero; opacity: 1;" transform=" matrix(1 0 0 1 0 0) " stroke-linecap="round" />
	<path d="M 43.119 43.313 h 2.92 c 0.553 0 1 -0.448 1 -1 s -0.447 -1 -1 -1 h -2.92 c -0.552 0 -1 0.448 -1 1 S 42.567 43.313 43.119 43.313 z" style="stroke: none; stroke-width: 1; stroke-dasharray: none; stroke-linecap: butt; stroke-linejoin: miter; stroke-miterlimit: 10; fill: white; fill-rule: nonzero; opacity: 1;" transform=" matrix(1 0 0 1 0 0) " stroke-linecap="round" />
	<path d="M 36.048 50.056 c -0.36 0.419 -0.313 1.051 0.106 1.41 c 1.32 1.136 2.702 1.703 4.106 1.703 c 1.395 0 2.812 -0.56 4.213 -1.68 c 0.431 -0.345 0.501 -0.975 0.157 -1.405 c -0.346 -0.432 -0.975 -0.502 -1.406 -0.157 c -2.048 1.638 -3.88 1.644 -5.767 0.023 C 37.04 49.589 36.408 49.638 36.048 50.056 z" style="stroke: none; stroke-width: 1; stroke-dasharray: none; stroke-linecap: butt; stroke-linejoin: miter; stroke-miterlimit: 10; fill: white; fill-rule: nonzero; opacity: 1;" transform=" matrix(1 0 0 1 0 0) " stroke-linecap="round" />
</g>
</svg>