<svg xmlns="http://www.w3.org/2000/svg" xmlns:xlink="http://www.w3.org/1999/xlink" version="1.1" width="256" height="256" viewBox="0 0 256 256" xml:space="preserve">

<defs>
</defs>
<g style="stroke: none; stroke-width: 0; stroke-dasharray: none; stroke-linecap: butt; stroke-linejoin: miter; stroke-miterlimit: 10; fill: none; fill-rule: nonzero; opacity: 1;" transform="translate(1.4065934065934016 1.4065934065934016) scale(2.81 2.81)" >
	<path d="M 45 90 c -11.93 0 -23.159 -4.631 -31.619 -13.041 C 4.448 68.081 -0.243 56.246 0.172 43.635 C 0.923 20.845 19.314 1.85 42.041 0.39 c 5.586 -0.357 11.088 0.294 16.353 1.939 c 0.527 0.165 0.821 0.726 0.656 1.253 c -0.165 0.526 -0.729 0.819 -1.252 0.656 c -5.031 -1.573 -10.29 -2.197 -15.629 -1.853 C 20.458 3.78 2.888 21.928 2.171 43.7 c -0.396 12.05 4.085 23.357 12.62 31.841 C 22.874 83.575 33.603 88 45 88 c 12.29 0 24.006 -5.289 32.144 -14.512 c 6.906 -7.827 10.709 -17.892 10.709 -28.341 c 0 -4.324 -0.642 -8.59 -1.906 -12.679 c -0.163 -0.527 0.132 -1.087 0.659 -1.251 c 0.53 -0.163 1.088 0.133 1.251 0.66 c 1.324 4.281 1.996 8.746 1.996 13.27 c 0 10.937 -3.98 21.472 -11.209 29.664 C 70.126 84.464 57.863 90 45 90 z" style="stroke: none; stroke-width: 1; stroke-dasharray: none; stroke-linecap: butt; stroke-linejoin: miter; stroke-miterlimit: 10; fill: rgb(8,138,214); fill-rule: nonzero; opacity: 1;" transform=" matrix(1 0 0 1 0 0) " stroke-linecap="round" />
	<path d="M 43.69 55.803 c -0.295 0 -0.588 -0.131 -0.786 -0.381 c -1.762 -2.233 -2.694 -4.921 -2.694 -7.773 v -3.707 c 0 -3.83 3.116 -6.946 6.946 -6.946 h 16.592 c 0.553 0 1 0.448 1 1 s -0.447 1 -1 1 H 47.156 c -2.727 0 -4.946 2.219 -4.946 4.946 v 3.707 c 0 2.398 0.783 4.658 2.264 6.535 c 0.342 0.434 0.268 1.063 -0.166 1.404 C 44.125 55.732 43.907 55.803 43.69 55.803 z" style="stroke: none; stroke-width: 1; stroke-dasharray: none; stroke-linecap: butt; stroke-linejoin: miter; stroke-miterlimit: 10; fill: rgb(8,138,214); fill-rule: nonzero; opacity: 1;" transform=" matrix(1 0 0 1 0 0) " stroke-linecap="round" />
	<path d="M 56.748 27.104 h -7.021 c -3.83 0 -6.946 -3.116 -6.946 -6.946 v -2.571 c 0 -3.83 3.116 -6.946 6.946 -6.946 h 4.964 c 0.553 0 1 0.448 1 1 s -0.447 1 -1 1 h -4.964 c -2.728 0 -4.946 2.219 -4.946 4.946 v 2.571 c 0 2.728 2.218 4.946 4.946 4.946 h 7.021 c 0.553 0 1 0.448 1 1 S 57.301 27.104 56.748 27.104 z" style="stroke: none; stroke-width: 1; stroke-dasharray: none; stroke-linecap: butt; stroke-linejoin: miter; stroke-miterlimit: 10; fill: rgb(8,138,214); fill-rule: nonzero; opacity: 1;" transform=" matrix(1 0 0 1 0 0) " stroke-linecap="round" />
	<path d="M 68.012 83.47 c -0.553 0 -1 -0.447 -1 -1 V 71.422 c 0 -5.772 -4.308 -10.558 -10.02 -11.153 c -0.387 -0.04 -0.777 -0.061 -1.174 -0.061 c -0.553 0 -1 -0.447 -1 -1 s 0.447 -1 1 -1 c 0.461 0 0.926 0.024 1.382 0.072 c 6.733 0.701 11.812 6.342 11.812 13.121 V 82.47 C 69.012 83.022 68.564 83.47 68.012 83.47 z" style="stroke: none; stroke-width: 1; stroke-dasharray: none; stroke-linecap: butt; stroke-linejoin: miter; stroke-miterlimit: 10; fill: rgb(8,138,214); fill-rule: nonzero; opacity: 1;" transform=" matrix(1 0 0 1 0 0) " stroke-linecap="round" />
	<path d="M 20.693 82.648 c -0.552 0 -1 -0.447 -1 -1 v -5.054 c 0 -2.855 2.323 -5.178 5.178 -5.178 c 0.552 0 1 0.447 1 1 s -0.448 1 -1 1 c -1.752 0 -3.178 1.426 -3.178 3.178 v 5.054 C 21.693 82.201 21.246 82.648 20.693 82.648 z" style="stroke: none; stroke-width: 1; stroke-dasharray: none; stroke-linecap: butt; stroke-linejoin: miter; stroke-miterlimit: 10; fill: rgb(8,138,214); fill-rule: nonzero; opacity: 1;" transform=" matrix(1 0 0 1 0 0) " stroke-linecap="round" />
	<path d="M 7.872 59.918 H 3.366 c -0.552 0 -1 -0.447 -1 -1 s 0.448 -1 1 -1 h 4.506 c 0.552 0 1 0.447 1 1 S 8.424 59.918 7.872 59.918 z" style="stroke: none; stroke-width: 1; stroke-dasharray: none; stroke-linecap: butt; stroke-linejoin: miter; stroke-miterlimit: 10; fill: rgb(8,138,214); fill-rule: nonzero; opacity: 1;" transform=" matrix(1 0 0 1 0 0) " stroke-linecap="round" />
	<path d="M 4.319 50.131 h -2.98 c -0.552 0 -1 -0.447 -1 -1 s 0.448 -1 1 -1 h 2.98 c 0.552 0 1 0.447 1 1 S 4.872 50.131 4.319 50.131 z" style="stroke: none; stroke-width: 1; stroke-dasharray: none; stroke-linecap: butt; stroke-linejoin: miter; stroke-miterlimit: 10; fill: rgb(8,138,214); fill-rule: nonzero; opacity: 1;" transform=" matrix(1 0 0 1 0 0) " stroke-linecap="round" />
	<path d="M 13.93 32.438 c -0.165 0 -0.333 -0.041 -0.487 -0.127 c -0.482 -0.27 -0.655 -0.878 -0.385 -1.361 c 1.057 -1.892 3.059 -3.068 5.225 -3.068 c 2.195 0 3.981 -1.786 3.981 -3.981 V 7.11 c 0 -0.552 0.448 -1 1 -1 s 1 0.448 1 1 V 23.9 c 0 3.298 -2.683 5.981 -5.981 5.981 c -1.442 0 -2.775 0.783 -3.479 2.043 C 14.621 32.253 14.28 32.438 13.93 32.438 z" style="stroke: none; stroke-width: 1; stroke-dasharray: none; stroke-linecap: butt; stroke-linejoin: miter; stroke-miterlimit: 10; fill: rgb(8,138,214); fill-rule: nonzero; opacity: 1;" transform=" matrix(1 0 0 1 0 0) " stroke-linecap="round" />
	<path d="M 74.263 45.636 L 74.263 45.636 c -0.354 0 -0.682 -0.187 -0.861 -0.492 l -2.3 -3.891 c -4.584 -7.75 -9.325 -15.765 -10.856 -18.838 c -1.044 -2.139 -1.571 -4.433 -1.571 -6.826 C 58.674 6.993 65.667 0 74.263 0 c 8.597 0 15.59 6.993 15.59 15.589 c 0 2.389 -0.527 4.683 -1.566 6.818 c -1.539 3.086 -6.291 11.119 -10.886 18.886 l -2.276 3.85 C 74.944 45.449 74.616 45.636 74.263 45.636 z M 74.263 2 C 66.77 2 60.674 8.096 60.674 15.589 c 0 2.085 0.459 4.084 1.364 5.942 c 1.496 2.999 6.215 10.977 10.778 18.692 l 1.446 2.447 l 1.409 -2.384 c 4.58 -7.742 9.316 -15.748 10.818 -18.763 c 0.903 -1.851 1.362 -3.85 1.362 -5.934 C 87.853 8.096 81.756 2 74.263 2 z" style="stroke: none; stroke-width: 1; stroke-dasharray: none; stroke-linecap: butt; stroke-linejoin: miter; stroke-miterlimit: 10; fill: rgb(8,138,214); fill-rule: nonzero; opacity: 1;" transform=" matrix(1 0 0 1 0 0) " stroke-linecap="round" />
	<path d="M 74.263 22.05 c -3.887 0 -7.049 -3.163 -7.049 -7.05 s 3.162 -7.049 7.049 -7.049 c 3.888 0 7.05 3.162 7.05 7.049 S 78.15 22.05 74.263 22.05 z M 74.263 9.951 c -2.784 0 -5.049 2.265 -5.049 5.049 c 0 2.785 2.265 5.05 5.049 5.05 s 5.05 -2.265 5.05 -5.05 C 79.313 12.216 77.047 9.951 74.263 9.951 z" style="stroke: none; stroke-width: 1; stroke-dasharray: none; stroke-linecap: butt; stroke-linejoin: miter; stroke-miterlimit: 10; fill: rgb(8,138,214); fill-rule: nonzero; opacity: 1;" transform=" matrix(1 0 0 1 0 0) " stroke-linecap="round" />
	<path d="M 20.36 68.999 L 20.36 68.999 c -0.354 0 -0.681 -0.187 -0.861 -0.491 l -1.751 -2.964 c -3.594 -6.076 -6.989 -11.815 -8.14 -14.127 C 8.805 49.773 8.4 48.013 8.4 46.178 c 0 -6.594 5.365 -11.959 11.959 -11.959 c 6.595 0 11.96 5.365 11.96 11.959 c 0 1.834 -0.404 3.595 -1.202 5.231 c -1.157 2.321 -4.556 8.067 -8.154 14.15 l -1.742 2.948 C 21.041 68.813 20.713 68.999 20.36 68.999 z M 20.36 36.218 c -5.492 0 -9.959 4.468 -9.959 9.959 c 0 1.528 0.336 2.994 1 4.356 c 1.115 2.236 4.647 8.208 8.063 13.982 l 0.897 1.518 l 0.876 -1.483 c 3.425 -5.789 6.966 -11.775 8.087 -14.026 c 0.66 -1.353 0.997 -2.817 0.997 -4.347 C 30.32 40.686 25.852 36.218 20.36 36.218 z" style="stroke: none; stroke-width: 1; stroke-dasharray: none; stroke-linecap: butt; stroke-linejoin: miter; stroke-miterlimit: 10; fill: rgb(8,138,214); fill-rule: nonzero; opacity: 1;" transform=" matrix(1 0 0 1 0 0) " stroke-linecap="round" />
	<path d="M 20.36 51.28 c -3.057 0 -5.544 -2.487 -5.544 -5.544 s 2.487 -5.544 5.544 -5.544 c 3.058 0 5.545 2.487 5.545 5.544 S 23.417 51.28 20.36 51.28 z M 20.36 42.191 c -1.955 0 -3.544 1.59 -3.544 3.544 s 1.59 3.544 3.544 3.544 s 3.545 -1.59 3.545 -3.544 S 22.314 42.191 20.36 42.191 z" style="stroke: none; stroke-width: 1; stroke-dasharray: none; stroke-linecap: butt; stroke-linejoin: miter; stroke-miterlimit: 10; fill: rgb(8,138,214); fill-rule: nonzero; opacity: 1;" transform=" matrix(1 0 0 1 0 0) " stroke-linecap="round" />
	<path d="M 26.628 69.323 c -0.08 0 -0.16 -0.01 -0.241 -0.029 c -0.341 -0.084 -0.679 -0.177 -1.016 -0.278 c -0.529 -0.159 -0.828 -0.717 -0.668 -1.246 c 0.16 -0.528 0.716 -0.829 1.247 -0.668 c 0.304 0.092 0.609 0.175 0.917 0.251 c 0.536 0.132 0.863 0.675 0.731 1.211 C 27.485 69.019 27.077 69.323 26.628 69.323 z" style="stroke: none; stroke-width: 1; stroke-dasharray: none; stroke-linecap: butt; stroke-linejoin: miter; stroke-miterlimit: 10; fill: rgb(8,138,214); fill-rule: nonzero; opacity: 1;" transform=" matrix(1 0 0 1 0 0) " stroke-linecap="round" />
	<path d="M 31.618 69.923 c -0.35 0 -0.7 -0.008 -1.05 -0.024 c -0.552 -0.026 -0.978 -0.494 -0.952 -1.046 c 0.026 -0.552 0.5 -0.97 1.046 -0.952 c 0.641 0.029 1.284 0.028 1.925 0 c 0.549 -0.035 1.02 0.401 1.045 0.953 c 0.025 0.552 -0.401 1.02 -0.953 1.045 C 32.326 69.915 31.972 69.923 31.618 69.923 z M 36.628 69.348 c -0.455 0 -0.867 -0.313 -0.974 -0.775 c -0.124 -0.538 0.211 -1.075 0.75 -1.199 c 0.628 -0.145 1.254 -0.318 1.861 -0.516 c 0.526 -0.171 1.089 0.118 1.26 0.642 c 0.17 0.525 -0.117 1.09 -0.642 1.261 c -0.661 0.215 -1.344 0.404 -2.029 0.563 C 36.778 69.34 36.703 69.348 36.628 69.348 z M 42.286 67.229 c -0.357 0 -0.703 -0.191 -0.883 -0.528 c -0.26 -0.487 -0.077 -1.093 0.411 -1.354 c 0.561 -0.3 1.118 -0.632 1.657 -0.985 c 0.462 -0.303 1.082 -0.175 1.385 0.287 c 0.303 0.462 0.175 1.081 -0.287 1.385 c -0.589 0.387 -1.198 0.749 -1.813 1.077 C 42.606 67.19 42.445 67.229 42.286 67.229 z M 47.165 63.673 c -0.261 0 -0.521 -0.101 -0.717 -0.303 c -0.385 -0.396 -0.377 -1.028 0.02 -1.414 c 0.458 -0.445 0.897 -0.918 1.306 -1.404 c 0.356 -0.423 0.986 -0.477 1.409 -0.122 c 0.423 0.355 0.478 0.986 0.122 1.409 c -0.452 0.537 -0.937 1.059 -1.442 1.551 C 47.668 63.578 47.417 63.673 47.165 63.673 z M 50.856 58.893 c -0.178 0 -0.357 -0.047 -0.521 -0.146 c -0.471 -0.288 -0.62 -0.903 -0.332 -1.375 c 0.347 -0.567 0.683 -1.143 1.017 -1.718 c 0.276 -0.478 0.887 -0.642 1.367 -0.363 c 0.478 0.277 0.641 0.89 0.363 1.367 c -0.342 0.589 -0.686 1.176 -1.04 1.757 C 51.522 58.723 51.193 58.893 50.856 58.893 z M 53.979 53.701 c -0.19 0 -0.384 -0.055 -0.555 -0.168 c -0.459 -0.308 -0.583 -0.928 -0.276 -1.388 c 0.408 -0.61 0.824 -1.183 1.235 -1.701 c 0.343 -0.431 0.974 -0.504 1.405 -0.161 c 0.433 0.344 0.505 0.973 0.161 1.405 c -0.378 0.476 -0.761 1.003 -1.138 1.568 C 54.618 53.545 54.302 53.701 53.979 53.701 z M 58.041 49.249 c -0.31 0 -0.615 -0.144 -0.811 -0.413 c -0.324 -0.447 -0.225 -1.072 0.223 -1.396 c 0.557 -0.403 1.138 -0.755 1.727 -1.043 l 0.176 -0.083 c 0.501 -0.233 1.096 -0.014 1.327 0.487 c 0.232 0.501 0.014 1.096 -0.487 1.327 l -0.136 0.064 c -0.486 0.238 -0.969 0.529 -1.433 0.866 C 58.449 49.188 58.244 49.249 58.041 49.249 z M 63.638 47.083 c -0.474 0 -0.895 -0.338 -0.982 -0.82 c -0.1 -0.543 0.261 -1.064 0.804 -1.164 l 0.337 -0.062 c 0.566 -0.101 1.13 -0.19 1.696 -0.27 c 0.544 -0.084 1.052 0.305 1.129 0.852 c 0.077 0.546 -0.305 1.052 -0.852 1.129 c -0.541 0.075 -1.081 0.161 -1.619 0.257 l -0.332 0.061 C 63.758 47.078 63.697 47.083 63.638 47.083 z" style="stroke: none; stroke-width: 1; stroke-dasharray: none; stroke-linecap: butt; stroke-linejoin: miter; stroke-miterlimit: 10; fill: rgb(8,138,214); fill-rule: nonzero; opacity: 1;" transform=" matrix(1 0 0 1 0 0) " stroke-linecap="round" />
	<path d="M 69.665 46.366 c -0.527 0 -0.969 -0.413 -0.997 -0.946 c -0.03 -0.551 0.393 -1.023 0.944 -1.053 c 0.34 -0.019 0.681 -0.033 1.021 -0.044 c 0.011 0 0.021 0 0.033 0 c 0.537 0 0.981 0.427 0.998 0.968 c 0.019 0.552 -0.415 1.014 -0.967 1.031 c -0.327 0.011 -0.652 0.025 -0.979 0.043 C 69.702 46.365 69.684 46.366 69.665 46.366 z" style="stroke: none; stroke-width: 1; stroke-dasharray: none; stroke-linecap: butt; stroke-linejoin: miter; stroke-miterlimit: 10; fill: rgb(8,138,214); fill-rule: nonzero; opacity: 1;" transform=" matrix(1 0 0 1 0 0) " stroke-linecap="round" />
</g>
</svg>