<svg xmlns="http://www.w3.org/2000/svg" xmlns:xlink="http://www.w3.org/1999/xlink" version="1.1" width="256" height="256" viewBox="0 0 256 256" xml:space="preserve">

<defs>
</defs>
<g style="stroke: none; stroke-width: 0; stroke-dasharray: none; stroke-linecap: butt; stroke-linejoin: miter; stroke-miterlimit: 10; fill: none; fill-rule: nonzero; opacity: 1;" transform="translate(1.4065934065934016 1.4065934065934016) scale(2.81 2.81)" >
	<path d="M 89.973 41.753 c -0.153 -1.616 -0.977 -3.112 -2.26 -4.106 c -2.375 -1.838 -5.745 -1.602 -7.772 0.489 L 65.368 50.571 c -1.045 -0.951 -2.428 -1.537 -3.949 -1.537 H 40.948 c -10.465 -2.624 -19.725 0 -27.546 7.763 l -0.897 -0.819 c -1.372 -1.251 -3.506 -1.154 -4.759 0.215 l -6.865 7.516 c -0.607 0.664 -0.918 1.524 -0.878 2.423 c 0.041 0.899 0.429 1.729 1.093 2.335 L 22.08 87.637 c 0.626 0.571 1.426 0.882 2.268 0.882 c 0.052 0 0.104 -0.002 0.156 -0.004 c 0.899 -0.041 1.728 -0.429 2.334 -1.093 l 6.865 -7.515 c 0.607 -0.665 0.919 -1.525 0.878 -2.424 c -0.041 -0.899 -0.429 -1.729 -1.093 -2.335 l -0.502 -0.459 c 1.831 -1.436 3.92 -2.246 5.862 -2.246 h 17.334 c 5.853 0 11.431 -2.519 15.303 -6.909 l 17.04 -19.324 C 89.599 44.993 90.127 43.369 89.973 41.753 z M 32.227 78.558 l -6.865 7.516 c -0.247 0.27 -0.583 0.427 -0.948 0.443 c -0.361 0.021 -0.715 -0.109 -0.985 -0.356 L 2.445 66.99 c -0.557 -0.509 -0.596 -1.376 -0.087 -1.933 l 6.865 -7.515 c 0.507 -0.558 1.375 -0.597 1.934 -0.088 L 32.14 76.625 c 0.27 0.246 0.427 0.583 0.444 0.948 C 32.6 77.939 32.474 78.289 32.227 78.558 z M 87.026 44.887 l -17.04 19.325 c -3.493 3.96 -8.524 6.232 -13.803 6.232 H 38.849 c -2.519 0 -5.098 1.024 -7.352 2.885 L 14.879 58.147 c 7.391 -7.312 15.805 -9.66 25.698 -7.144 l 20.843 0.031 c 2.139 0 3.878 1.739 3.878 3.878 c 0 2.139 -1.739 3.878 -3.878 3.878 l -20.304 3.011 c -0.546 0.081 -0.923 0.59 -0.842 1.137 c 0.074 0.496 0.501 0.853 0.988 0.853 c 0.049 0 0.099 -0.004 0.148 -0.011 l 20.087 -2.99 c 3.206 -0.041 5.801 -2.662 5.801 -5.877 c 0 -1 -0.252 -1.941 -0.694 -2.766 l 14.705 -12.552 c 1.384 -1.424 3.611 -1.581 5.181 -0.366 c 0.86 0.667 1.391 1.63 1.494 2.713 C 88.086 43.025 87.746 44.071 87.026 44.887 z" style="stroke: none; stroke-width: 1; stroke-dasharray: none; stroke-linecap: butt; stroke-linejoin: miter; stroke-miterlimit: 10; fill: rgb(8,138,234); fill-rule: nonzero; opacity: 1;" transform=" matrix(1 0 0 1 0 0) " stroke-linecap="round" />
	<path d="M 46.179 31.05 c -1.957 0.734 -4.15 -0.262 -4.884 -2.22 c -0.194 -0.517 -0.771 -0.778 -1.288 -0.585 c -0.517 0.194 -0.779 0.771 -0.585 1.288 c 0.543 1.449 1.619 2.6 3.028 3.241 c 0.5 0.227 1.022 0.373 1.551 0.452 v 1.741 c 0 0.552 0.448 1 1 1 s 1 -0.448 1 -1 v -1.799 c 0.297 -0.061 0.592 -0.135 0.882 -0.244 c 2.991 -1.122 4.512 -4.469 3.391 -7.46 c -0.644 -1.717 -2.026 -3 -3.732 -3.498 l -2.457 -0.898 c -1.157 -0.34 -2.063 -1.179 -2.484 -2.302 c -0.734 -1.959 0.262 -4.15 2.22 -4.885 c 1.958 -0.736 4.151 0.261 4.885 2.22 c 0.194 0.518 0.771 0.776 1.288 0.585 c 0.517 -0.194 0.778 -0.771 0.585 -1.288 c -0.764 -2.039 -2.563 -3.392 -4.579 -3.693 v -1.74 c 0 -0.552 -0.448 -1 -1 -1 s -1 0.448 -1 1 v 1.797 c -0.295 0.06 -0.59 0.137 -0.881 0.245 c -2.991 1.122 -4.512 4.468 -3.391 7.46 c 0.645 1.718 2.027 3 3.731 3.498 l 2.457 0.898 c 1.158 0.34 2.063 1.179 2.484 2.301 C 49.134 28.124 48.138 30.315 46.179 31.05 z" style="stroke: none; stroke-width: 1; stroke-dasharray: none; stroke-linecap: butt; stroke-linejoin: miter; stroke-miterlimit: 10; fill: rgb(8,138,234); fill-rule: nonzero; opacity: 1;" transform=" matrix(1 0 0 1 0 0) " stroke-linecap="round" />
	<path d="M 45 43.449 c 11.57 0 20.984 -9.413 20.984 -20.984 S 56.57 1.481 45 1.481 s -20.984 9.413 -20.984 20.984 S 33.43 43.449 45 43.449 z M 45 3.481 c 10.468 0 18.984 8.516 18.984 18.984 S 55.468 41.449 45 41.449 c -10.467 0 -18.984 -8.516 -18.984 -18.984 S 34.533 3.481 45 3.481 z" style="stroke: none; stroke-width: 1; stroke-dasharray: none; stroke-linecap: butt; stroke-linejoin: miter; stroke-miterlimit: 10; fill: rgb(8,138,234); fill-rule: nonzero; opacity: 1;" transform=" matrix(1 0 0 1 0 0) " stroke-linecap="round" />
</g>
</svg>