<svg xmlns="http://www.w3.org/2000/svg" xmlns:xlink="http://www.w3.org/1999/xlink" version="1.1" width="256" height="256" viewBox="0 0 256 256" xml:space="preserve">

<defs>
</defs>
<g style="stroke: none; stroke-width: 0; stroke-dasharray: none; stroke-linecap: butt; stroke-linejoin: miter; stroke-miterlimit: 10; fill: none; fill-rule: nonzero; opacity: 1;" transform="translate(1.4065934065934016 1.4065934065934016) scale(2.81 2.81)" >
	<path d="M 11.496 83.837 c 0.162 -22.501 2.101 -45.001 9.916 -67.502 h 47.176 c 7.815 22.501 9.754 45.001 9.916 67.502 C 78.525 86.682 76.223 89 73.378 89 H 16.622 C 13.777 89 11.475 86.682 11.496 83.837 z" style="stroke: none; stroke-width: 1; stroke-dasharray: none; stroke-linecap: butt; stroke-linejoin: miter; stroke-miterlimit: 10; fill: rgb(243,182,88); fill-rule: nonzero; opacity: 1;" transform=" matrix(1 0 0 1 0 0) " stroke-linecap="round" />
	<rect x="21.41" y="1" rx="0" ry="0" width="47.18" height="15.34" style="stroke: none; stroke-width: 1; stroke-dasharray: none; stroke-linecap: butt; stroke-linejoin: miter; stroke-miterlimit: 10; fill: rgb(190,143,125); fill-rule: nonzero; opacity: 1;" transform=" matrix(1 0 0 1 0 0) "/>
	<circle cx="44.997" cy="54.547" r="20.537" style="stroke: none; stroke-width: 1; stroke-dasharray: none; stroke-linecap: butt; stroke-linejoin: miter; stroke-miterlimit: 10; fill: rgb(175,104,73); fill-rule: nonzero; opacity: 1;" transform="  matrix(1 0 0 1 0 0) "/>
	<path d="M 73.378 90 H 16.623 c -1.645 0 -3.188 -0.643 -4.348 -1.811 c -1.159 -1.167 -1.791 -2.716 -1.779 -4.359 c 0.134 -18.597 1.388 -43.111 9.971 -67.823 c 0.14 -0.402 0.519 -0.672 0.945 -0.672 h 47.176 c 0.426 0 0.805 0.27 0.944 0.672 c 8.583 24.71 9.838 49.226 9.972 67.823 c 0.012 1.644 -0.62 3.192 -1.779 4.359 C 76.566 89.357 75.022 90 73.378 90 z M 22.125 17.335 c -8.279 24.209 -9.498 48.235 -9.629 66.509 l 0 0 c -0.008 1.107 0.417 2.15 1.198 2.937 c 0.781 0.787 1.821 1.22 2.928 1.22 h 56.755 c 1.107 0 2.147 -0.433 2.928 -1.22 c 0.78 -0.786 1.206 -1.829 1.198 -2.937 c -0.132 -18.274 -1.351 -42.302 -9.629 -66.509 H 22.125 z M 11.496 83.837 h 0.01 H 11.496 z" style="stroke: none; stroke-width: 1; stroke-dasharray: none; stroke-linecap: butt; stroke-linejoin: miter; stroke-miterlimit: 10; fill: rgb(0,0,0); fill-rule: nonzero; opacity: 1;" transform=" matrix(1 0 0 1 0 0) " stroke-linecap="round" />
	<path d="M 68.588 17.335 H 21.412 c -0.552 0 -1 -0.448 -1 -1 V 1 c 0 -0.552 0.448 -1 1 -1 h 47.176 c 0.553 0 1 0.448 1 1 v 15.335 C 69.588 16.887 69.141 17.335 68.588 17.335 z M 22.412 15.335 h 45.176 V 2 H 22.412 V 15.335 z" style="stroke: none; stroke-width: 1; stroke-dasharray: none; stroke-linecap: butt; stroke-linejoin: miter; stroke-miterlimit: 10; fill: rgb(0,0,0); fill-rule: nonzero; opacity: 1;" transform=" matrix(1 0 0 1 0 0) " stroke-linecap="round" />
	<path d="M 45 76.079 c -11.875 0 -21.537 -9.661 -21.537 -21.537 S 33.125 33.004 45 33.004 c 11.876 0 21.537 9.662 21.537 21.538 S 56.876 76.079 45 76.079 z M 45 35.004 c -10.773 0 -19.537 8.765 -19.537 19.538 c 0 10.772 8.764 19.537 19.537 19.537 c 10.772 0 19.537 -8.765 19.537 -19.537 C 64.537 43.769 55.772 35.004 45 35.004 z" style="stroke: none; stroke-width: 1; stroke-dasharray: none; stroke-linecap: butt; stroke-linejoin: miter; stroke-miterlimit: 10; fill: rgb(0,0,0); fill-rule: nonzero; opacity: 1;" transform=" matrix(1 0 0 1 0 0) " stroke-linecap="round" />
	<path d="M 45 67.776 c -0.552 0 -1 -0.447 -1 -1 V 49.11 c 0 -0.553 0.448 -1 1 -1 s 1 0.447 1 1 v 17.666 C 46 67.329 45.552 67.776 45 67.776 z" style="stroke: none; stroke-width: 1; stroke-dasharray: none; stroke-linecap: butt; stroke-linejoin: miter; stroke-miterlimit: 10; fill: rgb(0,0,0); fill-rule: nonzero; opacity: 1;" transform=" matrix(1 0 0 1 0 0) " stroke-linecap="round" />
	<path d="M 44.999 63.467 c -0.147 0 -0.297 -0.032 -0.439 -0.103 c -0.496 -0.243 -0.701 -0.842 -0.458 -1.338 c 1.033 -2.105 2.855 -3.788 5.417 -5.001 c 0.501 -0.237 1.097 -0.022 1.332 0.477 s 0.022 1.096 -0.477 1.332 c -2.143 1.014 -3.649 2.384 -4.477 4.073 C 45.724 63.262 45.369 63.467 44.999 63.467 z" style="stroke: none; stroke-width: 1; stroke-dasharray: none; stroke-linecap: butt; stroke-linejoin: miter; stroke-miterlimit: 10; fill: rgb(0,0,0); fill-rule: nonzero; opacity: 1;" transform=" matrix(1 0 0 1 0 0) " stroke-linecap="round" />
	<path d="M 45.001 60.282 c -0.37 0 -0.725 -0.206 -0.899 -0.56 c -0.828 -1.69 -2.334 -3.061 -4.477 -4.074 c -0.499 -0.236 -0.712 -0.833 -0.476 -1.332 c 0.236 -0.5 0.833 -0.713 1.332 -0.477 c 2.563 1.213 4.385 2.896 5.417 5.002 c 0.243 0.496 0.038 1.096 -0.458 1.339 C 45.298 60.25 45.148 60.282 45.001 60.282 z" style="stroke: none; stroke-width: 1; stroke-dasharray: none; stroke-linecap: butt; stroke-linejoin: miter; stroke-miterlimit: 10; fill: rgb(0,0,0); fill-rule: nonzero; opacity: 1;" transform=" matrix(1 0 0 1 0 0) " stroke-linecap="round" />
	<path d="M 48.369 45.03 c -0.705 -1.843 -1.883 -3.478 -3.369 -4.977 c -1.485 1.499 -2.663 3.133 -3.369 4.977 c -0.72 1.882 0.607 3.963 2.62 4.079 c 0.237 0.014 0.487 0.014 0.749 0.002 c 0.262 0.012 0.512 0.012 0.749 -0.002 C 47.761 48.993 49.089 46.912 48.369 45.03 z" style="stroke: none; stroke-width: 1; stroke-dasharray: none; stroke-linecap: butt; stroke-linejoin: miter; stroke-miterlimit: 10; fill: rgb(197,233,125); fill-rule: nonzero; opacity: 1;" transform=" matrix(1 0 0 1 0 0) " stroke-linecap="round" />
	<path d="M 45.363 50.119 c -0.134 0 -0.271 -0.003 -0.412 -0.01 c -0.204 0.014 -0.488 0.014 -0.758 -0.003 c -1.276 -0.073 -2.41 -0.738 -3.111 -1.822 c -0.706 -1.092 -0.846 -2.409 -0.385 -3.612 c 0.713 -1.862 1.888 -3.604 3.592 -5.323 c 0.376 -0.379 1.045 -0.379 1.421 0 c 1.704 1.719 2.879 3.46 3.592 5.323 c 0 0 0 0 0 0.001 c 0.461 1.204 0.32 2.521 -0.386 3.612 c -0.701 1.084 -1.835 1.748 -3.11 1.821 C 45.663 50.115 45.515 50.119 45.363 50.119 z M 45 41.513 c -1.125 1.267 -1.925 2.542 -2.435 3.874 c -0.23 0.601 -0.158 1.261 0.197 1.811 c 0.351 0.543 0.915 0.875 1.546 0.912 c 0.204 0.011 0.417 0.013 0.643 0.001 c 0.321 0.013 0.536 0.01 0.74 -0.001 c 0.632 -0.037 1.195 -0.369 1.546 -0.911 c 0.355 -0.551 0.428 -1.21 0.198 -1.812 l 0 0 C 46.925 44.055 46.124 42.78 45 41.513 z" style="stroke: none; stroke-width: 1; stroke-dasharray: none; stroke-linecap: butt; stroke-linejoin: miter; stroke-miterlimit: 10; fill: rgb(0,0,0); fill-rule: nonzero; opacity: 1;" transform=" matrix(1 0 0 1 0 0) " stroke-linecap="round" />
	<path d="M 35.293 56.869 c -1.703 -1.533 -2.984 -3.49 -3.989 -5.724 c 2.243 -0.985 4.505 -1.58 6.797 -1.577 c 2.34 0.004 4.041 2.31 3.328 4.539 c -0.084 0.263 -0.187 0.534 -0.31 0.813 c -0.096 0.289 -0.201 0.559 -0.315 0.811 C 39.84 57.863 37.032 58.434 35.293 56.869 z" style="stroke: none; stroke-width: 1; stroke-dasharray: none; stroke-linecap: butt; stroke-linejoin: miter; stroke-miterlimit: 10; fill: rgb(197,233,125); fill-rule: nonzero; opacity: 1;" transform=" matrix(1 0 0 1 0 0) " stroke-linecap="round" />
	<path d="M 37.606 58.762 c -1.097 0 -2.148 -0.398 -2.983 -1.149 c -1.703 -1.532 -3.088 -3.514 -4.232 -6.058 c -0.109 -0.243 -0.117 -0.521 -0.021 -0.77 c 0.096 -0.248 0.287 -0.449 0.531 -0.557 c 2.543 -1.117 4.891 -1.66 7.176 -1.66 c 0.008 0 0.017 0 0.024 0 c 1.445 0.002 2.766 0.68 3.625 1.857 c 0.853 1.17 1.091 2.622 0.655 3.985 c -0.094 0.294 -0.21 0.598 -0.346 0.909 c -0.075 0.238 -0.192 0.54 -0.319 0.821 c -0.59 1.306 -1.741 2.224 -3.158 2.521 C 38.24 58.729 37.921 58.762 37.606 58.762 z M 32.661 51.666 c 0.932 1.841 2.018 3.306 3.301 4.46 l 0 0 c 0.593 0.533 1.391 0.743 2.186 0.579 c 0.785 -0.165 1.421 -0.67 1.746 -1.387 c 0.1 -0.222 0.192 -0.459 0.277 -0.714 c 0.141 -0.332 0.232 -0.571 0.306 -0.803 c 0.24 -0.749 0.106 -1.55 -0.366 -2.198 c -0.483 -0.662 -1.267 -1.037 -2.032 -1.035 C 36.357 50.568 34.577 50.929 32.661 51.666 z" style="stroke: none; stroke-width: 1; stroke-dasharray: none; stroke-linecap: butt; stroke-linejoin: miter; stroke-miterlimit: 10; fill: rgb(0,0,0); fill-rule: nonzero; opacity: 1;" transform=" matrix(1 0 0 1 0 0) " stroke-linecap="round" />
	<path d="M 55.45 60.218 c 1.703 -1.533 2.984 -3.49 3.989 -5.724 c -2.243 -0.985 -4.505 -1.58 -6.797 -1.577 c -2.34 0.004 -4.041 2.31 -3.328 4.539 c 0.084 0.263 0.187 0.534 0.31 0.813 c 0.096 0.289 0.201 0.559 0.315 0.811 C 50.903 61.212 53.711 61.784 55.45 60.218 z" style="stroke: none; stroke-width: 1; stroke-dasharray: none; stroke-linecap: butt; stroke-linejoin: miter; stroke-miterlimit: 10; fill: rgb(197,233,125); fill-rule: nonzero; opacity: 1;" transform=" matrix(1 0 0 1 0 0) " stroke-linecap="round" />
	<path d="M 53.136 62.111 c -0.314 0 -0.633 -0.033 -0.951 -0.1 c -1.417 -0.297 -2.567 -1.216 -3.157 -2.52 c -0.128 -0.284 -0.246 -0.586 -0.353 -0.909 c -0.104 -0.223 -0.219 -0.527 -0.313 -0.822 c -0.437 -1.364 -0.197 -2.816 0.655 -3.986 c 0.858 -1.178 2.179 -1.855 3.623 -1.857 c 0.006 0 0.013 0 0.019 0 c 2.288 0 4.637 0.544 7.183 1.661 c 0.244 0.107 0.436 0.309 0.531 0.557 c 0.096 0.249 0.088 0.526 -0.021 0.77 c -1.143 2.541 -2.527 4.522 -4.232 6.058 l 0 0 C 55.285 61.713 54.233 62.111 53.136 62.111 z M 55.45 60.219 h 0.01 H 55.45 z M 52.659 53.917 c -0.005 0 -0.01 0 -0.016 0 c -0.799 0.001 -1.531 0.379 -2.01 1.035 c -0.473 0.648 -0.606 1.45 -0.367 2.199 c 0.074 0.23 0.164 0.469 0.272 0.713 c 0.119 0.345 0.212 0.584 0.312 0.806 c 0.323 0.715 0.959 1.22 1.745 1.385 c 0.793 0.165 1.591 -0.045 2.186 -0.579 l 0 0 c 1.284 -1.156 2.37 -2.621 3.302 -4.46 C 56.165 54.277 54.382 53.917 52.659 53.917 z" style="stroke: none; stroke-width: 1; stroke-dasharray: none; stroke-linecap: butt; stroke-linejoin: miter; stroke-miterlimit: 10; fill: rgb(0,0,0); fill-rule: nonzero; opacity: 1;" transform=" matrix(1 0 0 1 0 0) " stroke-linecap="round" />
	<path d="M 45 75.079 c 4.373 0 8.423 -1.371 11.754 -3.7 c -0.622 -1.641 -2.192 -2.815 -4.051 -2.815 c -0.765 0 -1.482 0.199 -2.106 0.545 c -1.055 -2.017 -3.163 -3.395 -5.596 -3.395 s -4.542 1.378 -5.596 3.395 c -0.624 -0.347 -1.342 -0.545 -2.106 -0.545 c -1.859 0 -3.43 1.174 -4.051 2.815 C 36.577 73.708 40.627 75.079 45 75.079 z" style="stroke: none; stroke-width: 1; stroke-dasharray: none; stroke-linecap: butt; stroke-linejoin: miter; stroke-miterlimit: 10; fill: rgb(190,143,125); fill-rule: nonzero; opacity: 1;" transform=" matrix(1 0 0 1 0 0) " stroke-linecap="round" />
	<path d="M 45 76.079 c -4.434 0 -8.697 -1.342 -12.327 -3.881 c -0.375 -0.262 -0.524 -0.745 -0.362 -1.174 c 0.796 -2.103 2.753 -3.461 4.986 -3.461 c 0.581 0 1.158 0.096 1.706 0.28 c 1.359 -1.95 3.581 -3.13 5.997 -3.13 c 2.415 0 4.638 1.179 5.997 3.13 c 0.548 -0.185 1.125 -0.28 1.706 -0.28 c 2.232 0 4.189 1.358 4.986 3.461 c 0.162 0.428 0.013 0.912 -0.362 1.174 C 53.696 74.737 49.434 76.079 45 76.079 z M 34.538 71.039 c 3.131 1.991 6.729 3.04 10.462 3.04 c 3.732 0 7.331 -1.049 10.462 -3.04 c -0.61 -0.915 -1.629 -1.476 -2.759 -1.476 c -0.565 0 -1.126 0.146 -1.621 0.42 c -0.235 0.131 -0.517 0.161 -0.772 0.084 c -0.258 -0.077 -0.474 -0.256 -0.599 -0.494 c -0.923 -1.764 -2.728 -2.859 -4.711 -2.859 s -3.788 1.096 -4.71 2.858 c -0.125 0.239 -0.341 0.418 -0.599 0.495 c -0.259 0.077 -0.537 0.048 -0.772 -0.084 c -0.495 -0.274 -1.056 -0.42 -1.621 -0.42 C 36.167 69.563 35.148 70.124 34.538 71.039 z" style="stroke: none; stroke-width: 1; stroke-dasharray: none; stroke-linecap: butt; stroke-linejoin: miter; stroke-miterlimit: 10; fill: rgb(0,0,0); fill-rule: nonzero; opacity: 1;" transform=" matrix(1 0 0 1 0 0) " stroke-linecap="round" />
	<path d="M 51.482 6.805 h -3.254 C 47.547 5.738 46.36 5.026 45 5.026 s -2.547 0.712 -3.228 1.779 h -3.254 c -1.136 0 -2.056 0.921 -2.056 2.056 s 0.921 2.056 2.056 2.056 h 3.254 c 0.681 1.067 1.868 1.779 3.228 1.779 s 2.547 -0.712 3.228 -1.779 h 3.254 c 1.136 0 2.056 -0.921 2.056 -2.056 S 52.617 6.805 51.482 6.805 z" style="stroke: none; stroke-width: 1; stroke-dasharray: none; stroke-linecap: butt; stroke-linejoin: miter; stroke-miterlimit: 10; fill: rgb(222,212,207); fill-rule: nonzero; opacity: 1;" transform=" matrix(1 0 0 1 0 0) " stroke-linecap="round" />
	<path d="M 45 13.696 c -1.462 0 -2.822 -0.656 -3.737 -1.779 h -2.744 c -1.686 0 -3.057 -1.371 -3.057 -3.057 c 0 -1.685 1.371 -3.056 3.057 -3.056 h 2.744 C 42.177 4.682 43.537 4.026 45 4.026 s 2.823 0.656 3.737 1.779 h 2.744 c 1.686 0 3.057 1.371 3.057 3.056 c 0 1.686 -1.371 3.057 -3.057 3.057 h -2.745 C 47.822 13.041 46.463 13.696 45 13.696 z M 38.519 7.805 c -0.583 0 -1.057 0.474 -1.057 1.056 s 0.474 1.057 1.057 1.057 h 3.253 c 0.341 0 0.659 0.174 0.843 0.462 c 0.527 0.825 1.418 1.317 2.385 1.317 s 1.858 -0.492 2.385 -1.317 c 0.184 -0.288 0.501 -0.462 0.843 -0.462 h 3.254 c 0.583 0 1.057 -0.474 1.057 -1.057 s -0.474 -1.056 -1.057 -1.056 h -3.254 c -0.342 0 -0.659 -0.174 -0.843 -0.462 C 46.858 6.518 45.967 6.026 45 6.026 c -0.967 0 -1.859 0.492 -2.385 1.317 c -0.184 0.288 -0.501 0.462 -0.843 0.462 H 38.519 z" style="stroke: none; stroke-width: 1; stroke-dasharray: none; stroke-linecap: butt; stroke-linejoin: miter; stroke-miterlimit: 10; fill: rgb(0,0,0); fill-rule: nonzero; opacity: 1;" transform=" matrix(1 0 0 1 0 0) " stroke-linecap="round" />
</g>
</svg>