<svg xmlns="http://www.w3.org/2000/svg" xmlns:xlink="http://www.w3.org/1999/xlink" version="1.1" width="256" height="256" viewBox="0 0 256 256" xml:space="preserve">

<defs>
</defs>
<g style="stroke: none; stroke-width: 0; stroke-dasharray: none; stroke-linecap: butt; stroke-linejoin: miter; stroke-miterlimit: 10; fill: none; fill-rule: nonzero; opacity: 1;" transform="translate(1.4065934065934016 1.4065934065934016) scale(2.81 2.81)" >
	<circle cx="45" cy="45" r="45" style="stroke: none; stroke-width: 1; stroke-dasharray: none; stroke-linecap: butt; stroke-linejoin: miter; stroke-miterlimit: 10; fill: rgb(32,196,203); fill-rule: nonzero; opacity: 1;" transform="  matrix(1 0 0 1 0 0) "/>
	<path d="M 70.236 66.518 l -26.21 -45.396 c -0.89 -1.541 -3.114 -1.541 -4.004 0 l -26.21 45.396 c -0.89 1.541 0.222 3.467 2.002 3.467 h 52.419 C 70.014 69.985 71.126 68.059 70.236 66.518 z M 38.536 37.922 c 0 -1.919 1.57 -3.489 3.489 -3.489 s 3.489 1.57 3.489 3.489 v 10.466 c 0 1.919 -1.57 3.489 -3.489 3.489 s -3.489 -1.57 -3.489 -3.489 V 37.922 z M 42.025 62.366 c -2.129 0 -3.854 -1.726 -3.854 -3.854 c 0 -2.129 1.726 -3.854 3.854 -3.854 s 3.854 1.726 3.854 3.854 C 45.879 60.64 44.153 62.366 42.025 62.366 z" style="stroke: none; stroke-width: 1; stroke-dasharray: none; stroke-linecap: butt; stroke-linejoin: miter; stroke-miterlimit: 10; fill: rgb(27,167,173); fill-rule: nonzero; opacity: 1;" transform=" matrix(1 0 0 1 0 0) " stroke-linecap="round" />
	<path d="M 73.187 63.567 l -26.21 -45.396 c -0.89 -1.541 -3.114 -1.541 -4.004 0 l -26.21 45.396 c -0.89 1.541 0.222 3.467 2.002 3.467 h 52.419 C 72.964 67.034 74.077 65.108 73.187 63.567 z M 41.487 34.971 c 0 -1.919 1.57 -3.489 3.489 -3.489 s 3.489 1.57 3.489 3.489 v 10.466 c 0 1.919 -1.57 3.489 -3.489 3.489 s -3.489 -1.57 -3.489 -3.489 V 34.971 z M 44.975 59.415 c -2.129 0 -3.854 -1.726 -3.854 -3.854 c 0 -2.129 1.726 -3.854 3.854 -3.854 s 3.854 1.726 3.854 3.854 C 48.83 57.69 47.104 59.415 44.975 59.415 z" style="stroke: none; stroke-width: 1; stroke-dasharray: none; stroke-linecap: butt; stroke-linejoin: miter; stroke-miterlimit: 10; fill: rgb(255,255,255); fill-rule: nonzero; opacity: 1;" transform=" matrix(1 0 0 1 0 0) " stroke-linecap="round" />
</g>
</svg>